<?xml version="1.0" encoding="utf-8"?>
<!-- Generator: Adobe Illustrator 27.3.1, SVG Export Plug-In . SVG Version: 6.00 Build 0)  -->
<svg version="1.1" id="Layer_1" xmlns="http://www.w3.org/2000/svg" xmlns:xlink="http://www.w3.org/1999/xlink" x="0px" y="0px"
	 viewBox="0 0 284 299" style="enable-background:new 0 0 284 299;" xml:space="preserve">
<style type="text/css">
	.st0{fill:#5270D1;}
	.st1{fill:#FFFFFF;}
	.st2{opacity:0.24;}
	.st3{fill:none;stroke:#5270D1;stroke-width:2;stroke-miterlimit:10;}
	.st4{fill:none;stroke:#000000;stroke-width:4;stroke-miterlimit:10;}
	.st5{fill:#B4DDFC;stroke:#6BAED6;stroke-width:2;stroke-miterlimit:10;}
	.st6{fill:#FEC350;stroke:#D19E43;stroke-width:2;stroke-miterlimit:10;}
	.st7{fill:#5270D1;stroke:#3D5BA5;stroke-width:2;stroke-miterlimit:10;}
	.st8{fill:#3C8E61;stroke:#2C774C;stroke-width:2;stroke-miterlimit:10;}
	.st9{fill:#5FAFE0;stroke:#4799C3;stroke-miterlimit:10;}
	.st10{fill:#F2B64C;stroke:#D19E43;stroke-width:2;stroke-miterlimit:10;}
	.st11{fill:#DB6A3E;stroke:#C6512C;stroke-width:2;stroke-miterlimit:10;}
	.st12{fill:#D1D1D1;stroke:#B7B7B7;stroke-miterlimit:10;}
	.st13{fill:#282828;stroke:#000000;stroke-width:2;stroke-miterlimit:10;}
	.st14{fill:#636363;stroke:#424242;stroke-width:2;stroke-miterlimit:10;}
	.st15{fill:#383838;stroke:#212121;stroke-miterlimit:10;}
	.st16{fill:#FFDAAE;stroke:#F9C893;stroke-width:2;stroke-miterlimit:10;}
	.st17{fill:#1E2E4C;stroke:#09111E;stroke-miterlimit:10;}
	.st18{fill:#DBDBDB;stroke:#09111E;stroke-miterlimit:10;}
	.st19{fill:#FFFFFF;stroke:#09111E;stroke-miterlimit:10;}
	.st20{fill:#B24D4D;stroke:#9B3D3D;stroke-miterlimit:10;}
	.st21{fill:#3C8E61;}
	.st22{fill:#4CB47E;}
	.st23{fill:#D19E43;}
	.st24{fill:#BCBCBC;stroke:#828282;stroke-width:2;stroke-miterlimit:10;}
	.st25{fill:#383838;stroke:#212121;stroke-width:2;stroke-miterlimit:10;}
	.st26{fill:#F2F2F2;stroke:#D3D3D3;stroke-width:2;stroke-miterlimit:10;}
	.st27{fill:#C9597C;}
	.st28{fill:#4C66A5;}
	.st29{fill:#5296D1;}
	.st30{fill:#F9C66B;}
	.st31{fill:#D87252;}
	.st32{fill:#222F44;}
</style>
<g>
	<path class="st0" d="M194.18,232.57H89.82c-17.06,0-30.89-13.83-30.89-30.89V97.32c0-17.06,13.83-30.89,30.89-30.89h104.36
		c17.06,0,30.89,13.83,30.89,30.89v104.36C225.07,218.74,211.24,232.57,194.18,232.57z"/>
	<g>
		<circle class="st1" cx="142.27" cy="114.15" r="23.99"/>
		<path class="st1" d="M191.12,202.81c-1.07,1.58-2.78,2.48-4.69,2.48H97.56c-1.88,0-3.59-0.89-4.67-2.46
			c-1.07-1.56-1.29-3.47-0.62-5.24l18.12-47.25c0.84-2.18,2.97-3.64,5.3-3.64h51.96c2.34,0,4.41,1.4,5.28,3.58l18.77,47.25
			C192.4,199.31,192.2,201.23,191.12,202.81z"/>
		<path class="st1" d="M195,196.22l-18.79-47.25c-1.39-3.53-4.76-5.81-8.56-5.81h-51.96c-3.79,0-7.25,2.37-8.61,5.91l-18.12,47.25
			c-1.09,2.83-0.71,6.03,1.01,8.53c1.72,2.5,4.55,3.99,7.59,3.99h88.87c3.05,0,5.91-1.51,7.63-4.04
			C195.77,202.27,196.13,199.07,195,196.22z M191.12,202.81c-1.07,1.58-2.78,2.48-4.69,2.48H97.56c-1.88,0-3.59-0.89-4.67-2.46
			c-1.07-1.56-1.29-3.47-0.62-5.24l18.12-47.25c0.84-2.18,2.97-3.64,5.3-3.64h51.96c2.34,0,4.41,1.4,5.28,3.58l18.77,47.25
			C192.4,199.31,192.2,201.23,191.12,202.81z"/>
		<path class="st0" d="M142,154.95l-5.95-7.39l6.19-1.55l5.71,1.55L142,154.95z"/>
		<g>
			<polygon class="st0" points="133.93,166.06 142,156.04 150.07,166.06 142,185.65 			"/>
		</g>
		<g>
			<g>
				<rect x="110.86" y="205.29" class="st1" width="3.55" height="0.75"/>
			</g>
			<g>
				<rect x="169.59" y="205.29" class="st1" width="3.55" height="0.74"/>
			</g>
		</g>
		<g>
			<polygon class="st0" points="117.51,193.94 111.97,205.29 108.43,205.29 113.96,193.94 			"/>
			<polygon class="st0" points="166.5,193.94 172.03,205.29 175.57,205.29 170.04,193.94 			"/>
		</g>
	</g>
</g>
</svg>
