<?xml version="1.0" encoding="utf-8"?>
<!-- Generator: Adobe Illustrator 27.3.1, SVG Export Plug-In . SVG Version: 6.00 Build 0)  -->
<svg version="1.1" id="Layer_1" xmlns="http://www.w3.org/2000/svg" xmlns:xlink="http://www.w3.org/1999/xlink" x="0px" y="0px"
	 viewBox="0 0 284 299" style="enable-background:new 0 0 284 299;" xml:space="preserve">
<style type="text/css">
	.st0{fill:#5270D1;}
	.st1{fill:#FFFFFF;}
	.st2{opacity:0.24;}
	.st3{fill:none;stroke:#5270D1;stroke-width:2;stroke-miterlimit:10;}
	.st4{fill:none;stroke:#000000;stroke-width:4;stroke-miterlimit:10;}
	.st5{fill:#B4DDFC;stroke:#6BAED6;stroke-width:2;stroke-miterlimit:10;}
	.st6{fill:#FEC350;stroke:#D19E43;stroke-width:2;stroke-miterlimit:10;}
	.st7{fill:#5270D1;stroke:#3D5BA5;stroke-width:2;stroke-miterlimit:10;}
	.st8{fill:#3C8E61;stroke:#2C774C;stroke-width:2;stroke-miterlimit:10;}
	.st9{fill:#5FAFE0;stroke:#4799C3;stroke-miterlimit:10;}
	.st10{fill:#F2B64C;stroke:#D19E43;stroke-width:2;stroke-miterlimit:10;}
	.st11{fill:#DB6A3E;stroke:#C6512C;stroke-width:2;stroke-miterlimit:10;}
	.st12{fill:#D1D1D1;stroke:#B7B7B7;stroke-miterlimit:10;}
	.st13{fill:#282828;stroke:#000000;stroke-width:2;stroke-miterlimit:10;}
	.st14{fill:#636363;stroke:#424242;stroke-width:2;stroke-miterlimit:10;}
	.st15{fill:#383838;stroke:#212121;stroke-miterlimit:10;}
	.st16{fill:#FFDAAE;stroke:#F9C893;stroke-width:2;stroke-miterlimit:10;}
	.st17{fill:#1E2E4C;stroke:#09111E;stroke-miterlimit:10;}
	.st18{fill:#DBDBDB;stroke:#09111E;stroke-miterlimit:10;}
	.st19{fill:#FFFFFF;stroke:#09111E;stroke-miterlimit:10;}
	.st20{fill:#B24D4D;stroke:#9B3D3D;stroke-miterlimit:10;}
	.st21{fill:#3C8E61;}
	.st22{fill:#4CB47E;}
	.st23{fill:#D19E43;}
	.st24{fill:#BCBCBC;stroke:#828282;stroke-width:2;stroke-miterlimit:10;}
	.st25{fill:#383838;stroke:#212121;stroke-width:2;stroke-miterlimit:10;}
	.st26{fill:#F2F2F2;stroke:#D3D3D3;stroke-width:2;stroke-miterlimit:10;}
	.st27{fill:#C9597C;}
	.st28{fill:#4C66A5;}
	.st29{fill:#5296D1;}
	.st30{fill:#F9C66B;}
	.st31{fill:#D87252;}
	.st32{fill:#222F44;}
</style>
<g>
	<path class="st0" d="M194.18,232.57H89.82c-17.06,0-30.89-13.83-30.89-30.89V97.32c0-17.06,13.83-30.89,30.89-30.89h104.36
		c17.06,0,30.89,13.83,30.89,30.89v104.36C225.07,218.74,211.24,232.57,194.18,232.57z"/>
	<g>
		<g>
			<g>
				<path class="st1" d="M186.17,133.36c-0.02,0-0.02,0-0.02,0c-0.65,0-1.31-0.1-1.9-0.28c-2.45-0.73-4.31-2.85-4.69-5.42
					c-0.04-0.32-0.06-0.63-0.06-0.95c0-0.28,0.02-0.55,0.04-0.81c0.14-1.09-0.69-2.04-1.76-2.04h-71.56c-1.09,0-1.9,0.95-1.78,2.04
					c0.04,0.26,0.06,0.53,0.06,0.81c0,0.32-0.02,0.63-0.08,0.95c-0.36,2.57-2.24,4.69-4.67,5.42c-0.61,0.18-1.25,0.28-1.9,0.28
					c-0.02,0-0.02,0-0.02,0c-1.03,0-1.88,0.77-1.88,1.8v29.63c0,1.03,0.85,1.8,1.88,1.8c0,0,0,0,0.02,0c0.65,0,1.29,0.1,1.9,0.28
					c2.14,0.63,3.84,2.33,4.47,4.47c0.18,0.59,0.28,1.25,0.28,1.9c0,0,0,0,0,0.02c0,1.03,0.77,1.88,1.78,1.88h71.42
					c1.03,0,1.8-0.85,1.8-1.88c0-0.02,0-0.02,0-0.02c0-0.65,0.08-1.31,0.28-1.9c0.63-2.14,2.33-3.84,4.47-4.47
					c0.59-0.18,1.25-0.28,1.9-0.28c0,0,0,0,0.02,0c1.01,0,1.88-0.77,1.88-1.8v-29.63C188.05,134.14,187.18,133.36,186.17,133.36z
					 M184.26,161.57c0,0.79-0.53,1.46-1.29,1.7c-3.2,1.03-5.76,3.58-6.78,6.78c-0.24,0.75-0.91,1.29-1.7,1.29h-64.97
					c-0.79,0-1.46-0.53-1.7-1.29c-1.03-3.2-3.56-5.76-6.78-6.78c-0.75-0.24-1.27-0.91-1.27-1.7v-23.18c0-0.81,0.51-1.48,1.27-1.72
					c3.48-1.11,6.15-4,7-7.58c0.18-0.81,0.89-1.42,1.76-1.42h64.44c0.85,0,1.56,0.61,1.76,1.42c0.83,3.58,3.52,6.47,6.98,7.58
					c0.75,0.24,1.29,0.91,1.29,1.72V161.57z"/>
				<path class="st1" d="M140.9,150.08c-0.2-0.71-0.49-1.23-1.03-1.44v-0.02c0.67-0.24,1.36-0.91,1.36-1.9
					c0-0.71-0.26-1.25-0.71-1.6c-0.55-0.44-1.34-0.61-2.49-0.61c-0.91,0-1.74,0.08-2.29,0.16v7.58h1.72v-3.01h0.51
					c0.71,0,1.03,0.26,1.25,1.23c0.24,0.95,0.42,1.56,0.53,1.78h1.78C141.37,151.94,141.14,150.95,140.9,150.08z M138.13,147.98
					h-0.67v-2.14c0.12-0.02,0.36-0.04,0.77-0.04c0.79,0,1.29,0.36,1.29,1.05C139.51,147.53,139,147.98,138.13,147.98z"/>
				<path class="st1" d="M145.96,146.56c-0.81,0-1.44,0.3-1.86,0.89h-0.02l-0.08-0.77h-1.5c0.02,0.51,0.04,1.13,0.04,1.86v5.95h1.72
					v-2.77h0.04c0.24,0.38,0.77,0.65,1.44,0.65c1.25,0,2.51-0.97,2.51-2.99C148.26,147.61,147.17,146.56,145.96,146.56z
					 M145.33,151.03c-0.51,0-0.91-0.36-1.03-0.81c-0.02-0.1-0.04-0.24-0.04-0.36v-0.77c0-0.12,0.02-0.22,0.04-0.32
					c0.12-0.51,0.55-0.87,1.05-0.87c0.77,0,1.17,0.67,1.17,1.56C146.52,150.39,146.08,151.03,145.33,151.03z"/>
				<path class="st1" d="M182.97,136.67c-3.46-1.11-6.15-4-6.98-7.58c-0.2-0.81-0.91-1.42-1.76-1.42h-64.44
					c-0.87,0-1.58,0.61-1.76,1.42c-0.85,3.58-3.52,6.47-7,7.58c-0.75,0.24-1.27,0.91-1.27,1.72v23.18c0,0.79,0.51,1.46,1.27,1.7
					c3.22,1.03,5.76,3.58,6.78,6.78c0.24,0.75,0.91,1.29,1.7,1.29h64.97c0.79,0,1.46-0.53,1.7-1.29c1.03-3.2,3.58-5.76,6.78-6.78
					c0.75-0.24,1.29-0.91,1.29-1.7v-23.18C184.26,137.58,183.72,136.9,182.97,136.67z M114.95,153.78c-2.37,0-4.27-1.92-4.27-4.27
					c0-2.37,1.9-4.27,4.27-4.27c2.35,0,4.27,1.9,4.27,4.27C119.22,151.86,117.3,153.78,114.95,153.78z M142.01,162.8
					c-7.34,0-13.29-5.95-13.29-13.29c0-7.34,5.95-13.29,13.29-13.29c7.34,0,13.29,5.95,13.29,13.29
					C155.3,156.84,149.34,162.8,142.01,162.8z M169.06,153.78c-2.37,0-4.27-1.92-4.27-4.27c0-2.37,1.9-4.27,4.27-4.27
					c2.35,0,4.27,1.9,4.27,4.27C173.34,151.86,171.42,153.78,169.06,153.78z"/>
			</g>
		</g>
		<path class="st1" d="M188.07,114.85H95.94c-6.69,0-12.14,5.44-12.14,12.12v45.04c0,6.71,5.46,12.14,12.14,12.14h92.13
			c6.69,0,12.12-5.44,12.12-12.14v-45.04C200.2,120.29,194.76,114.85,188.07,114.85z M196.4,172.01c0,4.61-3.74,8.35-8.33,8.35
			H95.94c-4.61,0-8.35-3.74-8.35-8.35v-45.04c0-4.59,3.74-8.33,8.35-8.33h92.13c4.59,0,8.33,3.74,8.33,8.33V172.01z"/>
	</g>
</g>
</svg>
