<?xml version="1.0" encoding="utf-8"?>
<!-- Generator: Adobe Illustrator 27.3.1, SVG Export Plug-In . SVG Version: 6.00 Build 0)  -->
<svg version="1.1" id="Layer_1" xmlns="http://www.w3.org/2000/svg" xmlns:xlink="http://www.w3.org/1999/xlink" x="0px" y="0px"
	 viewBox="0 0 284 299" style="enable-background:new 0 0 284 299;" xml:space="preserve">
<style type="text/css">
	.st0{fill:#5270D1;}
	.st1{fill:#FFFFFF;}
	.st2{opacity:0.24;}
	.st3{fill:none;stroke:#5270D1;stroke-width:2;stroke-miterlimit:10;}
	.st4{fill:none;stroke:#000000;stroke-width:4;stroke-miterlimit:10;}
	.st5{fill:#B4DDFC;stroke:#6BAED6;stroke-width:2;stroke-miterlimit:10;}
	.st6{fill:#FEC350;stroke:#D19E43;stroke-width:2;stroke-miterlimit:10;}
	.st7{fill:#5270D1;stroke:#3D5BA5;stroke-width:2;stroke-miterlimit:10;}
	.st8{fill:#3C8E61;stroke:#2C774C;stroke-width:2;stroke-miterlimit:10;}
	.st9{fill:#5FAFE0;stroke:#4799C3;stroke-miterlimit:10;}
	.st10{fill:#F2B64C;stroke:#D19E43;stroke-width:2;stroke-miterlimit:10;}
	.st11{fill:#DB6A3E;stroke:#C6512C;stroke-width:2;stroke-miterlimit:10;}
	.st12{fill:#D1D1D1;stroke:#B7B7B7;stroke-miterlimit:10;}
	.st13{fill:#282828;stroke:#000000;stroke-width:2;stroke-miterlimit:10;}
	.st14{fill:#636363;stroke:#424242;stroke-width:2;stroke-miterlimit:10;}
	.st15{fill:#383838;stroke:#212121;stroke-miterlimit:10;}
	.st16{fill:#FFDAAE;stroke:#F9C893;stroke-width:2;stroke-miterlimit:10;}
	.st17{fill:#1E2E4C;stroke:#09111E;stroke-miterlimit:10;}
	.st18{fill:#DBDBDB;stroke:#09111E;stroke-miterlimit:10;}
	.st19{fill:#FFFFFF;stroke:#09111E;stroke-miterlimit:10;}
	.st20{fill:#B24D4D;stroke:#9B3D3D;stroke-miterlimit:10;}
	.st21{fill:#3C8E61;}
	.st22{fill:#4CB47E;}
	.st23{fill:#D19E43;}
	.st24{fill:#BCBCBC;stroke:#828282;stroke-width:2;stroke-miterlimit:10;}
	.st25{fill:#383838;stroke:#212121;stroke-width:2;stroke-miterlimit:10;}
	.st26{fill:#F2F2F2;stroke:#D3D3D3;stroke-width:2;stroke-miterlimit:10;}
	.st27{fill:#C9597C;}
	.st28{fill:#4C66A5;}
	.st29{fill:#5296D1;}
	.st30{fill:#F9C66B;}
	.st31{fill:#D87252;}
	.st32{fill:#222F44;}
</style>
<g>
	<path class="st0" d="M225.07,97.32v104.36c0,17.07-13.83,30.9-30.9,30.9H89.82c-17.07,0-30.9-13.83-30.9-30.9V97.32
		c0-17.07,13.83-30.9,30.9-30.9h104.36C211.25,66.43,225.07,80.25,225.07,97.32z"/>
	<g>
		<path class="st1" d="M164.06,100.87c-0.01,0-0.01-0.01-0.02-0.02c-0.06-0.05-0.13-0.1-0.21-0.14l-0.07-0.03l-0.68-0.34l-0.04-0.01
			l-20.3-10.05c-0.49-0.24-1.09-0.04-1.33,0.45c-0.24,0.49-0.04,1.09,0.45,1.33l15.78,7.81h-32.02l12.66-4.88
			c0.51-0.19,0.77-0.77,0.57-1.28c-0.19-0.51-0.77-0.77-1.28-0.57l-17.79,6.86h-0.01c-2.72,0.56-4.77,2.97-4.77,5.85v39.79
			c0,3.29,2.68,5.97,5.97,5.97h7.59h24.62h7.59c3.29,0,5.97-2.68,5.97-5.97v-39.79C166.72,103.76,165.66,101.94,164.06,100.87z
			 M135.81,113.25l2.52-1.99l2.52-1.99l2.52,1.99l2.52,1.99h-1.96v7.74h-6.15v-7.74H135.81z M130.53,149.6v-10.43c0-2.2,1.8-4,4-4
			h12.64c2.2,0,4,1.8,4,4v10.43H130.53z"/>
		<g>
			<g>
				<path class="st1" d="M136.58,158.12c-0.01,0-0.01-0.01-0.02-0.02c-0.09-0.06-0.19-0.12-0.28-0.17l-0.68-0.34l-0.04-0.01
					c-0.7-0.29-1.48-0.46-2.28-0.46H93.48c-0.41,0-0.81,0.04-1.19,0.12h-0.01c-2.72,0.56-4.76,2.97-4.76,5.85v39.79
					c0,3.29,2.68,5.97,5.97,5.97h7.59h24.62h7.59c3.29,0,5.97-2.68,5.97-5.97v-39.79C139.24,161.01,138.19,159.19,136.58,158.12z
					 M92.83,159.15l-0.98,0.38c-0.09,0.03-0.18,0.05-0.28,0.06C91.96,159.38,92.38,159.23,92.83,159.15z M103.06,206.85v-10.43
					c0-2.2,1.8-4,4-4h12.64c2.2,0,4,1.8,4,4v10.43H103.06z"/>
				<rect x="107.86" y="163.18" class="st0" width="11.04" height="11.04"/>
			</g>
			<g>
				<path class="st1" d="M193.83,158.12c-0.01,0-0.01-0.01-0.02-0.02c-0.09-0.06-0.19-0.12-0.28-0.17l-0.68-0.34l-0.04-0.01
					c-0.7-0.29-1.48-0.46-2.28-0.46h-39.79c-0.41,0-0.81,0.04-1.19,0.12h-0.01c-2.72,0.56-4.76,2.97-4.76,5.85v39.79
					c0,3.29,2.68,5.97,5.97,5.97h7.59h24.62h7.59c3.29,0,5.97-2.68,5.97-5.97v-39.79C196.49,161.01,195.43,159.19,193.83,158.12z
					 M150.08,159.15l-0.98,0.38c-0.09,0.03-0.18,0.05-0.28,0.06C149.21,159.38,149.63,159.23,150.08,159.15z M160.3,206.85v-10.43
					c0-2.2,1.8-4,4-4h12.64c2.2,0,4,1.8,4,4v10.43H160.3z"/>
				<circle class="st0" cx="170.62" cy="168.7" r="5.52"/>
			</g>
		</g>
	</g>
</g>
</svg>
