<?xml version="1.0" encoding="utf-8"?>
<!-- Generator: Adobe Illustrator 27.3.1, SVG Export Plug-In . SVG Version: 6.00 Build 0)  -->
<svg version="1.1" id="Layer_1" xmlns="http://www.w3.org/2000/svg" xmlns:xlink="http://www.w3.org/1999/xlink" x="0px" y="0px"
	 viewBox="0 0 284 299" style="enable-background:new 0 0 284 299;" xml:space="preserve">
<style type="text/css">
	.st0{fill:#5270D1;}
	.st1{fill:#FFFFFF;}
	.st2{opacity:0.24;}
	.st3{fill:none;stroke:#5270D1;stroke-width:2;stroke-miterlimit:10;}
	.st4{fill:none;stroke:#000000;stroke-width:4;stroke-miterlimit:10;}
	.st5{fill:#B4DDFC;stroke:#6BAED6;stroke-width:2;stroke-miterlimit:10;}
	.st6{fill:#FEC350;stroke:#D19E43;stroke-width:2;stroke-miterlimit:10;}
	.st7{fill:#5270D1;stroke:#3D5BA5;stroke-width:2;stroke-miterlimit:10;}
	.st8{fill:#3C8E61;stroke:#2C774C;stroke-width:2;stroke-miterlimit:10;}
	.st9{fill:#5FAFE0;stroke:#4799C3;stroke-miterlimit:10;}
	.st10{fill:#F2B64C;stroke:#D19E43;stroke-width:2;stroke-miterlimit:10;}
	.st11{fill:#DB6A3E;stroke:#C6512C;stroke-width:2;stroke-miterlimit:10;}
	.st12{fill:#D1D1D1;stroke:#B7B7B7;stroke-miterlimit:10;}
	.st13{fill:#282828;stroke:#000000;stroke-width:2;stroke-miterlimit:10;}
	.st14{fill:#636363;stroke:#424242;stroke-width:2;stroke-miterlimit:10;}
	.st15{fill:#383838;stroke:#212121;stroke-miterlimit:10;}
	.st16{fill:#FFDAAE;stroke:#F9C893;stroke-width:2;stroke-miterlimit:10;}
	.st17{fill:#1E2E4C;stroke:#09111E;stroke-miterlimit:10;}
	.st18{fill:#DBDBDB;stroke:#09111E;stroke-miterlimit:10;}
	.st19{fill:#FFFFFF;stroke:#09111E;stroke-miterlimit:10;}
	.st20{fill:#B24D4D;stroke:#9B3D3D;stroke-miterlimit:10;}
	.st21{fill:#3C8E61;}
	.st22{fill:#4CB47E;}
	.st23{fill:#D19E43;}
	.st24{fill:#BCBCBC;stroke:#828282;stroke-width:2;stroke-miterlimit:10;}
	.st25{fill:#383838;stroke:#212121;stroke-width:2;stroke-miterlimit:10;}
	.st26{fill:#F2F2F2;stroke:#D3D3D3;stroke-width:2;stroke-miterlimit:10;}
	.st27{fill:#C9597C;}
	.st28{fill:#4C66A5;}
	.st29{fill:#5296D1;}
	.st30{fill:#F9C66B;}
	.st31{fill:#D87252;}
	.st32{fill:#222F44;}
</style>
<g>
	<path class="st0" d="M194.18,232.57H89.82c-17.06,0-30.89-13.83-30.89-30.89V97.32c0-17.06,13.83-30.89,30.89-30.89h104.36
		c17.06,0,30.89,13.83,30.89,30.89v104.36C225.07,218.74,211.24,232.57,194.18,232.57z"/>
	<g>
		<path class="st1" d="M190.01,162.35H93.99c-6.33,0-11.46,6.47-11.46,14.45v17.58c0,7.99,5.13,14.46,11.46,14.46h96.03
			c6.33,0,11.46-6.47,11.46-14.46V176.8C201.48,168.82,196.35,162.35,190.01,162.35z"/>
		<path class="st0" d="M93.99,204.84c-4.04,0-7.46-4.79-7.46-10.46V176.8c0-5.66,3.42-10.45,7.46-10.45h96.03
			c4.05,0,7.46,4.78,7.46,10.45v17.58c0,5.67-3.42,10.46-7.46,10.46H93.99z"/>
		<path class="st1" d="M93.99,201.84c-2.06,0-4.46-3.26-4.46-7.46V176.8c0-4.19,2.4-7.45,4.46-7.45h96.03
			c2.06,0,4.46,3.25,4.46,7.45v17.58c0,4.2-2.4,7.46-4.46,7.46H93.99z"/>
		<g>
			<path class="st1" d="M135.24,101.04h-28.75c-0.36,0-0.7,0.02-1.02,0.06c0.03-5.29,0.26-10.2,0.7-10.55
				c1.45-1.2,2.04,1.3,3.78,1.3c1.73,0,1.73-1.42,3.46-1.42c1.74,0,1.74,1.42,3.47,1.42c1.74,0,1.74-1.42,3.47-1.42
				c1.74,0,1.74,1.42,3.47,1.42c1.74,0,1.74-1.42,3.47-1.42c1.74,0,1.92,1.91,3.6,1.4c1.94-0.6,2.19-2.48,3.64-1.27
				C134.97,90.91,135.21,95.78,135.24,101.04z"/>
			<path class="st1" d="M185.25,114.54c-0.5-4.97-3.81-8.68-7.74-8.68h-71.02c-0.34,0-0.68,0.02-1,0.1
				c-3.48,0.55-6.28,4.05-6.74,8.59l-4.25,43h95.02L185.25,114.54z M134.04,133.51h-28.77c-1.38,0-2.51-1.33-2.51-2.96v-7.02
				c0-1.63,1.12-2.96,2.51-2.96h28.77c1.38,0,2.51,1.33,2.51,2.96v7.02C136.55,132.18,135.43,133.51,134.04,133.51z"/>
		</g>
		<g>
			<path class="st0" d="M147.66,124.26h-5.63c-0.27,0-0.49-0.37-0.49-0.82v-1.95c0-0.45,0.22-0.82,0.49-0.82h5.63
				c0.27,0,0.49,0.37,0.49,0.82v1.95C148.15,123.9,147.93,124.26,147.66,124.26z"/>
			<path class="st0" d="M147.66,131.28h-5.63c-0.27,0-0.49-0.37-0.49-0.82v-1.95c0-0.45,0.22-0.82,0.49-0.82h5.63
				c0.27,0,0.49,0.37,0.49,0.82v1.95C148.15,130.92,147.93,131.28,147.66,131.28z"/>
			<path class="st0" d="M147.66,138.3h-5.63c-0.27,0-0.49-0.37-0.49-0.82v-1.95c0-0.45,0.22-0.82,0.49-0.82h5.63
				c0.27,0,0.49,0.37,0.49,0.82v1.95C148.15,137.94,147.93,138.3,147.66,138.3z"/>
			<path class="st0" d="M147.66,145.32h-5.63c-0.27,0-0.49-0.37-0.49-0.82v-1.95c0-0.45,0.22-0.82,0.49-0.82h5.63
				c0.27,0,0.49,0.37,0.49,0.82v1.95C148.15,144.96,147.93,145.32,147.66,145.32z"/>
		</g>
		<g>
			<path class="st0" d="M158.27,124.26h-5.63c-0.27,0-0.49-0.37-0.49-0.82v-1.95c0-0.45,0.22-0.82,0.49-0.82h5.63
				c0.27,0,0.49,0.37,0.49,0.82v1.95C158.76,123.9,158.54,124.26,158.27,124.26z"/>
			<path class="st0" d="M158.27,131.28h-5.63c-0.27,0-0.49-0.37-0.49-0.82v-1.95c0-0.45,0.22-0.82,0.49-0.82h5.63
				c0.27,0,0.49,0.37,0.49,0.82v1.95C158.76,130.92,158.54,131.28,158.27,131.28z"/>
			<path class="st0" d="M158.27,138.3h-5.63c-0.27,0-0.49-0.37-0.49-0.82v-1.95c0-0.45,0.22-0.82,0.49-0.82h5.63
				c0.27,0,0.49,0.37,0.49,0.82v1.95C158.76,137.94,158.54,138.3,158.27,138.3z"/>
			<path class="st0" d="M158.27,145.32h-5.63c-0.27,0-0.49-0.37-0.49-0.82v-1.95c0-0.45,0.22-0.82,0.49-0.82h5.63
				c0.27,0,0.49,0.37,0.49,0.82v1.95C158.76,144.96,158.54,145.32,158.27,145.32z"/>
		</g>
		<g>
			<path class="st0" d="M168.88,124.26h-5.63c-0.27,0-0.49-0.37-0.49-0.82v-1.95c0-0.45,0.22-0.82,0.49-0.82h5.63
				c0.27,0,0.49,0.37,0.49,0.82v1.95C169.37,123.9,169.15,124.26,168.88,124.26z"/>
			<path class="st0" d="M168.88,131.28h-5.63c-0.27,0-0.49-0.37-0.49-0.82v-1.95c0-0.45,0.22-0.82,0.49-0.82h5.63
				c0.27,0,0.49,0.37,0.49,0.82v1.95C169.37,130.92,169.15,131.28,168.88,131.28z"/>
			<path class="st0" d="M168.88,138.3h-5.63c-0.27,0-0.49-0.37-0.49-0.82v-1.95c0-0.45,0.22-0.82,0.49-0.82h5.63
				c0.27,0,0.49,0.37,0.49,0.82v1.95C169.37,137.94,169.15,138.3,168.88,138.3z"/>
			<path class="st0" d="M168.88,145.32h-5.63c-0.27,0-0.49-0.37-0.49-0.82v-1.95c0-0.45,0.22-0.82,0.49-0.82h5.63
				c0.27,0,0.49,0.37,0.49,0.82v1.95C169.37,144.96,169.15,145.32,168.88,145.32z"/>
		</g>
		<g>
			<path class="st0" d="M179.49,124.26h-5.63c-0.27,0-0.49-0.37-0.49-0.82v-1.95c0-0.45,0.22-0.82,0.49-0.82h5.63
				c0.27,0,0.49,0.37,0.49,0.82v1.95C179.98,123.9,179.76,124.26,179.49,124.26z"/>
			<path class="st0" d="M179.49,131.28h-5.63c-0.27,0-0.49-0.37-0.49-0.82v-1.95c0-0.45,0.22-0.82,0.49-0.82h5.63
				c0.27,0,0.49,0.37,0.49,0.82v1.95C179.98,130.92,179.76,131.28,179.49,131.28z"/>
			<path class="st0" d="M179.49,138.3h-5.63c-0.27,0-0.49-0.37-0.49-0.82v-1.95c0-0.45,0.22-0.82,0.49-0.82h5.63
				c0.27,0,0.49,0.37,0.49,0.82v1.95C179.98,137.94,179.76,138.3,179.49,138.3z"/>
			<path class="st0" d="M179.49,145.32h-5.63c-0.27,0-0.49-0.37-0.49-0.82v-1.95c0-0.45,0.22-0.82,0.49-0.82h5.63
				c0.27,0,0.49,0.37,0.49,0.82v1.95C179.98,144.96,179.76,145.32,179.49,145.32z"/>
		</g>
	</g>
</g>
</svg>
