<?xml version="1.0" encoding="utf-8"?>
<!-- Generator: Adobe Illustrator 27.3.1, SVG Export Plug-In . SVG Version: 6.00 Build 0)  -->
<svg version="1.1" id="Layer_1" xmlns="http://www.w3.org/2000/svg" xmlns:xlink="http://www.w3.org/1999/xlink" x="0px" y="0px"
	 viewBox="0 0 284 299" style="enable-background:new 0 0 284 299;" xml:space="preserve">
<style type="text/css">
	.st0{fill:#5270D1;}
	.st1{fill:#FFFFFF;}
	.st2{opacity:0.24;}
	.st3{fill:none;stroke:#5270D1;stroke-width:2;stroke-miterlimit:10;}
	.st4{fill:none;stroke:#000000;stroke-width:4;stroke-miterlimit:10;}
	.st5{fill:#B4DDFC;stroke:#6BAED6;stroke-width:2;stroke-miterlimit:10;}
	.st6{fill:#FEC350;stroke:#D19E43;stroke-width:2;stroke-miterlimit:10;}
	.st7{fill:#5270D1;stroke:#3D5BA5;stroke-width:2;stroke-miterlimit:10;}
	.st8{fill:#3C8E61;stroke:#2C774C;stroke-width:2;stroke-miterlimit:10;}
	.st9{fill:#5FAFE0;stroke:#4799C3;stroke-miterlimit:10;}
	.st10{fill:#F2B64C;stroke:#D19E43;stroke-width:2;stroke-miterlimit:10;}
	.st11{fill:#DB6A3E;stroke:#C6512C;stroke-width:2;stroke-miterlimit:10;}
	.st12{fill:#D1D1D1;stroke:#B7B7B7;stroke-miterlimit:10;}
	.st13{fill:#282828;stroke:#000000;stroke-width:2;stroke-miterlimit:10;}
	.st14{fill:#636363;stroke:#424242;stroke-width:2;stroke-miterlimit:10;}
	.st15{fill:#383838;stroke:#212121;stroke-miterlimit:10;}
	.st16{fill:#FFDAAE;stroke:#F9C893;stroke-width:2;stroke-miterlimit:10;}
	.st17{fill:#1E2E4C;stroke:#09111E;stroke-miterlimit:10;}
	.st18{fill:#DBDBDB;stroke:#09111E;stroke-miterlimit:10;}
	.st19{fill:#FFFFFF;stroke:#09111E;stroke-miterlimit:10;}
	.st20{fill:#B24D4D;stroke:#9B3D3D;stroke-miterlimit:10;}
	.st21{fill:#3C8E61;}
	.st22{fill:#4CB47E;}
	.st23{fill:#D19E43;}
	.st24{fill:#BCBCBC;stroke:#828282;stroke-width:2;stroke-miterlimit:10;}
	.st25{fill:#383838;stroke:#212121;stroke-width:2;stroke-miterlimit:10;}
	.st26{fill:#F2F2F2;stroke:#D3D3D3;stroke-width:2;stroke-miterlimit:10;}
	.st27{fill:#C9597C;}
	.st28{fill:#4C66A5;}
	.st29{fill:#5296D1;}
	.st30{fill:#F9C66B;}
	.st31{fill:#D87252;}
	.st32{fill:#222F44;}
</style>
<g>
	<path class="st0" d="M194.18,232.57H89.82c-17.06,0-30.89-13.83-30.89-30.89V97.32c0-17.06,13.83-30.89,30.89-30.89h104.36
		c17.06,0,30.89,13.83,30.89,30.89v104.36C225.07,218.74,211.24,232.57,194.18,232.57z"/>
	<g class="st2">
		<path d="M151.58,150.46v-7.77c0-0.62-0.5-1.13-1.13-1.13h-2.83c-0.61,0-1.15-0.37-1.39-0.93l-0.01-0.02
			c-0.23-0.56-0.1-1.21,0.33-1.64l2.79-2.79l-7.08-7.08l-2.79,2.79c-0.43,0.43-1.08,0.56-1.64,0.33l-0.02-0.01
			c-0.56-0.23-0.93-0.78-0.93-1.39v-2.83c0-0.62-0.5-1.13-1.13-1.13H128c-0.62,0-1.13,0.5-1.13,1.13v2.84c0,0.6-0.36,1.14-0.91,1.37
			l-0.03,0.01c-0.56,0.23-1.21,0.1-1.64-0.33l-2.79-2.79l-7.08,7.08l2.79,2.79c0.43,0.43,0.56,1.08,0.33,1.64l-0.01,0.02
			c-0.23,0.56-0.78,0.93-1.39,0.93h-2.83c-0.62,0-1.13,0.5-1.13,1.13v7.77c0,0.62,0.5,1.13,1.13,1.13h2.83
			c0.61,0,1.15,0.37,1.39,0.93l0.01,0.02c0.23,0.56,0.1,1.21-0.33,1.64l-2.79,2.79l7.08,7.08l2.81-2.81
			c0.42-0.42,1.06-0.55,1.61-0.32l0.03,0.01c0.56,0.23,0.93,0.78,0.93,1.39v2.83c0,0.62,0.5,1.13,1.13,1.13h7.77
			c0.62,0,1.13-0.5,1.13-1.13v-2.83c0-0.61,0.37-1.15,0.93-1.39l0.02-0.01c0.56-0.23,1.21-0.1,1.64,0.33l2.79,2.79l7.08-7.08
			l-2.79-2.79c-0.43-0.43-0.56-1.08-0.33-1.64l0.01-0.02c0.23-0.56,0.78-0.93,1.39-0.93h2.83
			C151.08,151.59,151.58,151.09,151.58,150.46z M131.88,155.59c-4.97,0-9.01-4.04-9.01-9.01c0-4.97,4.04-9.01,9.01-9.01
			s9.01,4.04,9.01,9.01C140.89,151.55,136.85,155.59,131.88,155.59z"/>
		<path d="M165.64,181.29l1.78-3.67c0.14-0.29,0.02-0.65-0.27-0.79l-1.33-0.65c-0.29-0.14-0.46-0.44-0.44-0.76l0-0.01
			c0.02-0.32,0.23-0.59,0.53-0.7l1.96-0.68l-1.72-4.97l-1.96,0.68c-0.3,0.1-0.64,0.02-0.85-0.22l-0.01-0.01
			c-0.21-0.24-0.26-0.58-0.12-0.87l0.65-1.33c0.14-0.29,0.02-0.65-0.27-0.79l-3.67-1.78c-0.29-0.14-0.65-0.02-0.79,0.27l-0.65,1.34
			c-0.14,0.28-0.43,0.45-0.74,0.44l-0.02,0c-0.32-0.02-0.59-0.23-0.7-0.53l-0.68-1.96l-4.97,1.72l0.68,1.96
			c0.1,0.3,0.02,0.64-0.22,0.85l-0.01,0.01c-0.24,0.21-0.58,0.26-0.87,0.12l-1.33-0.65c-0.29-0.14-0.65-0.02-0.79,0.27l-1.78,3.67
			c-0.14,0.29-0.02,0.65,0.27,0.79l1.33,0.65c0.29,0.14,0.46,0.44,0.44,0.76l0,0.01c-0.02,0.32-0.23,0.59-0.53,0.7l-1.96,0.68
			l1.72,4.97l1.97-0.68c0.3-0.1,0.63-0.02,0.83,0.22l0.01,0.01c0.21,0.24,0.26,0.58,0.12,0.87l-0.65,1.33
			c-0.14,0.29-0.02,0.65,0.27,0.79l3.67,1.78c0.29,0.14,0.65,0.02,0.79-0.27l0.65-1.33c0.14-0.29,0.44-0.46,0.76-0.44l0.01,0
			c0.32,0.02,0.59,0.23,0.7,0.53l0.68,1.96l4.97-1.72l-0.68-1.96c-0.1-0.3-0.02-0.64,0.22-0.85l0.01-0.01
			c0.24-0.21,0.58-0.26,0.87-0.12l1.33,0.65C165.15,181.7,165.5,181.58,165.64,181.29z M155.17,179.19
			c-2.34-1.14-3.33-3.97-2.19-6.32s3.97-3.33,6.32-2.19c2.34,1.14,3.33,3.97,2.19,6.32C160.34,179.35,157.51,180.33,155.17,179.19z"
			/>
	</g>
	<g>
		<path class="st1" d="M179.8,101.07H104.2c-3.53,0-6.39,2.86-6.39,6.39v93.78c0,3.53,2.86,6.39,6.39,6.39h75.59
			c3.53,0,6.39-2.86,6.39-6.39v-93.78C186.19,103.93,183.33,101.07,179.8,101.07z M181.37,196.39c0,3.53-2.88,6.39-6.41,6.39h-65.91
			c-3.53,0-6.39-2.86-6.39-6.39V112.3c0-3.53,2.86-6.39,6.39-6.39h65.91c3.53,0,6.41,2.86,6.41,6.39V196.39z"/>
		<path class="st0" d="M181.37,112.3v84.09c0,3.53-2.88,6.39-6.41,6.39h-65.91c-3.53,0-6.39-2.86-6.39-6.39V112.3
			c0-3.53,2.86-6.39,6.39-6.39h65.91C178.49,105.91,181.37,108.77,181.37,112.3z"/>
		<path class="st1" d="M109.05,199.78c-1.87,0-3.38-1.52-3.38-3.38V112.3c0-1.87,1.52-3.39,3.38-3.39h65.91
			c1.88,0,3.4,1.52,3.4,3.39v84.09c0,1.87-1.53,3.38-3.4,3.38H109.05z"/>
		<path class="st1" d="M158.77,104.49h-33.55c-1.1,0-2-0.89-2-2v-4.04c0-1.1,0.89-2,2-2h33.55c1.1,0,2,0.89,2,2v4.04
			C160.77,103.6,159.88,104.49,158.77,104.49z"/>
		<path class="st1" d="M149.86,96.82c0,0.64-0.06,1.25-0.2,1.83c-0.1,0.42-0.22,0.81-0.4,1.21c-0.46,1.11-1.17,2.08-2.04,2.86
			c-0.32,0.3-0.68,0.56-1.03,0.77h-8.38c-0.36-0.22-0.71-0.48-1.03-0.77c-0.87-0.77-1.59-1.75-2.04-2.86
			c-0.18-0.4-0.3-0.79-0.4-1.21c-0.14-0.58-0.2-1.19-0.2-1.83c0-0.48,0.04-0.93,0.12-1.37c0.18-1.03,0.58-2.01,1.11-2.86
			c1.39-2.18,3.85-3.63,6.63-3.63s5.24,1.45,6.63,3.63c0.54,0.85,0.93,1.83,1.11,2.86C149.82,95.88,149.86,96.34,149.86,96.82z"/>
	</g>
	<g>
		<path class="st0" d="M145.76,175.24v-4.06c0-0.32-0.26-0.59-0.59-0.59h-1.48c-0.32,0-0.6-0.19-0.73-0.48l0-0.01
			c-0.12-0.29-0.05-0.63,0.17-0.86l1.46-1.46l-3.7-3.7l-1.46,1.46c-0.22,0.22-0.56,0.29-0.86,0.17l-0.01,0
			c-0.29-0.12-0.48-0.41-0.48-0.73v-1.48c0-0.32-0.26-0.59-0.59-0.59h-4.06c-0.32,0-0.59,0.26-0.59,0.59v1.49
			c0,0.31-0.19,0.59-0.48,0.71l-0.02,0.01c-0.29,0.12-0.63,0.05-0.86-0.17l-1.46-1.46l-3.7,3.7l1.46,1.46
			c0.22,0.22,0.29,0.56,0.17,0.86l0,0.01c-0.12,0.29-0.41,0.48-0.73,0.48h-1.48c-0.32,0-0.59,0.26-0.59,0.59v4.06
			c0,0.32,0.26,0.59,0.59,0.59h1.48c0.32,0,0.6,0.19,0.73,0.48l0,0.01c0.12,0.29,0.05,0.63-0.17,0.86l-1.46,1.46l3.7,3.7l1.47-1.47
			c0.22-0.22,0.55-0.29,0.84-0.17l0.02,0.01c0.29,0.12,0.48,0.41,0.48,0.73v1.48c0,0.32,0.26,0.59,0.59,0.59h4.06
			c0.32,0,0.59-0.26,0.59-0.59v-1.48c0-0.32,0.19-0.6,0.48-0.73l0.01,0c0.29-0.12,0.63-0.05,0.86,0.17l1.46,1.46l3.7-3.7l-1.46-1.46
			c-0.22-0.22-0.29-0.56-0.17-0.86l0-0.01c0.12-0.29,0.41-0.48,0.73-0.48h1.48C145.49,175.83,145.76,175.57,145.76,175.24z
			 M135.46,177.92c-2.6,0-4.71-2.11-4.71-4.71s2.11-4.71,4.71-4.71s4.71,2.11,4.71,4.71S138.05,177.92,135.46,177.92z"/>
		<path class="st0" d="M153.1,191.35l0.93-1.92c0.07-0.15,0.01-0.34-0.14-0.41l-0.7-0.34c-0.15-0.07-0.24-0.23-0.23-0.39l0-0.01
			c0.01-0.17,0.12-0.31,0.28-0.37l1.02-0.36l-0.9-2.6l-1.02,0.36c-0.16,0.05-0.33,0.01-0.44-0.12l0,0c-0.11-0.12-0.14-0.3-0.06-0.45
			l0.34-0.7c0.07-0.15,0.01-0.34-0.14-0.41l-1.92-0.93c-0.15-0.07-0.34-0.01-0.41,0.14l-0.34,0.7c-0.07,0.15-0.22,0.24-0.39,0.23
			l-0.01,0c-0.17-0.01-0.31-0.12-0.37-0.28l-0.36-1.02l-2.6,0.9l0.36,1.02c0.05,0.16,0.01,0.33-0.12,0.44l0,0
			c-0.12,0.11-0.3,0.14-0.45,0.06l-0.7-0.34c-0.15-0.07-0.34-0.01-0.41,0.14l-0.93,1.92c-0.07,0.15-0.01,0.34,0.14,0.41l0.7,0.34
			c0.15,0.07,0.24,0.23,0.23,0.39l0,0.01c-0.01,0.17-0.12,0.31-0.28,0.37l-1.02,0.36l0.9,2.6l1.03-0.36
			c0.16-0.05,0.33-0.01,0.44,0.11l0.01,0.01c0.11,0.12,0.14,0.3,0.06,0.45l-0.34,0.7c-0.07,0.15-0.01,0.34,0.14,0.41l1.92,0.93
			c0.15,0.07,0.34,0.01,0.41-0.14l0.34-0.7c0.07-0.15,0.23-0.24,0.39-0.23l0.01,0c0.17,0.01,0.31,0.12,0.37,0.28l0.36,1.02l2.6-0.9
			l-0.36-1.02c-0.05-0.16-0.01-0.33,0.12-0.44l0,0c0.12-0.11,0.3-0.14,0.45-0.06l0.7,0.34C152.84,191.57,153.03,191.51,153.1,191.35
			z M147.63,190.26c-1.23-0.59-1.74-2.08-1.14-3.3c0.59-1.23,2.08-1.74,3.3-1.14c1.23,0.59,1.74,2.08,1.14,3.3
			C150.33,190.34,148.85,190.85,147.63,190.26z"/>
	</g>
	<g>
		<rect x="157.02" y="125.37" class="st3" width="7.95" height="7.95"/>
		<rect x="157.02" y="145.69" class="st3" width="7.95" height="7.95"/>
		<line class="st3" x1="119.02" y1="129.49" x2="151.43" y2="129.49"/>
		<line class="st3" x1="119.02" y1="149.81" x2="151.43" y2="149.81"/>
	</g>
</g>
</svg>
