<svg width="941" height="649" fill="none" xmlns="http://www.w3.org/2000/svg"><mask id="a" mask-type="alpha" maskUnits="userSpaceOnUse" x="70" y="0" width="800" height="649"><path fill="#C4C4C4" d="M70 0h800v649H70z"/></mask><g opacity=".89" stroke="#000" mask="url(#a)"><path opacity=".09" d="M-51.851 385.133 450.557 639.86M450.561 137.054-51.848 391.787M-16.879 367.401 485.53 622.132M485.53 154.776-16.879 409.502M18.09 349.668l502.408 254.734M520.501 172.507 18.09 427.236M53.059 331.941l502.408 254.73M555.47 190.236 53.059 444.968M88.027 314.208l502.412 254.73M590.439 207.966 88.03 462.697M123 296.479l502.408 254.732M625.408 225.697 123 480.426M157.968 278.753l502.409 254.726M660.38 243.426 157.968 498.16M192.937 261.021l502.412 254.728M695.349 261.156 192.94 515.886M227.906 243.29l502.411 254.732M730.317 278.89 227.909 533.617M262.875 225.56l502.411 254.731M765.286 296.616 262.878 551.35M297.847 207.829l502.408 254.73M800.258 314.346 297.85 569.076M332.815 190.098 835.227 444.83M835.227 332.08 332.818 586.808M367.784 172.37l502.412 254.728M870.196 349.806 367.787 604.54M402.753 154.639l502.411 254.727M905.165 367.538l-502.409 254.73M437.725 136.907l502.409 254.732M940.137 385.27 437.729 640"/></g><path fill="#EDE7F6" d="m129 423.563 35.083-20.254 34.864 20.128-35.083 20.253z"/><path fill="#B39DDB" fill-opacity=".6" d="m131.589 425.058 32.478-18.75 32.276 18.633-32.478 18.75z"/><path fill="#E3F2FD" d="M515.931 566.066 551.054 545l34.903 20.934L550.834 587z"/><path fill="#90CAF9" fill-opacity=".6" d="m518.522 567.62 32.515-19.502 32.312 19.38L550.834 587z"/><path fill="#E3F2FD" d="m269 177.39 35.11-21.058L339 177.258l-35.11 21.059z"/><path fill="#90CAF9" fill-opacity=".6" d="m271.59 178.943 32.503-19.495 32.3 19.373-32.503 19.495z"/></svg>