<svg width="451" height="304" fill="none" xmlns="http://www.w3.org/2000/svg"><g filter="url(#a)"><path d="M220.95 18.638 79.724 83.632 60.58 88.916v23.966c-.197 3.34 2.522 6.712 8.13 9.255l117.57 53.409c10.787 4.892 28.437 4.891 39.223-.001l156.886-71.16c5.782-2.623 8.465-6.14 8.047-9.593l.044.02V70.316l-21.993 9.975-92.385-61.653c-10.786-4.892-44.367-4.892-55.153 0Z" fill="#90CAF9"/></g><path d="M225.497 8.895 68.611 80.055c-10.786 4.892-10.688 12.853.099 17.745l117.571 53.408c10.786 4.892 28.436 4.892 39.222-.001l156.886-71.16c10.786-4.892 10.786-12.897-.001-17.789L264.719 8.894c-10.786-4.892-28.436-4.891-39.222.001Zm39.223 17.788-29.414 57.815-127.472 13.345-19.612-8.894 127.472-13.345 29.415-57.815 19.611 8.894Z" fill="#2196F3"/><path d="M225.497 8.895 68.611 80.055c-10.786 4.892-10.688 12.853.099 17.745l117.571 53.408c10.786 4.892 28.436 4.892 39.222-.001l156.886-71.16c10.786-4.892 10.786-12.897-.001-17.789L264.719 8.894c-10.786-4.892-28.436-4.891-39.222.001Zm39.223 17.788-29.414 57.815-127.472 13.345-19.612-8.894 127.472-13.345 29.415-57.815 19.611 8.894Z" fill="url(#b)"/><path d="m239.24 85.88 29.414-57.814-19.611-8.894-29.415 57.815L92.156 90.332l19.612 8.894L239.24 85.88Z" fill="#E3F2FD"/><defs><linearGradient id="b" x1="59.086" y1="80.051" x2="232.865" y2="228.078" gradientUnits="userSpaceOnUse"><stop stop-color="#6DBAF7"/><stop offset="1" stop-color="#fff" stop-opacity="0"/></linearGradient><filter id="a" x=".571" y="14.969" width="449.91" height="288.245" filterUnits="userSpaceOnUse" color-interpolation-filters="sRGB"><feFlood flood-opacity="0" result="BackgroundImageFix"/><feColorMatrix in="SourceAlpha" values="0 0 0 0 0 0 0 0 0 0 0 0 0 0 0 0 0 0 127 0"/><feOffset dy="64"/><feGaussianBlur stdDeviation="30"/><feColorMatrix values="0 0 0 0 0.0823529 0 0 0 0 0.396079 0 0 0 0 0.752941 0 0 0 0.27 0"/><feBlend in2="BackgroundImageFix" result="effect1_dropShadow"/><feBlend in="SourceGraphic" in2="effect1_dropShadow" result="shape"/></filter></defs></svg>