<svg width="92" height="32" fill="none" xmlns="http://www.w3.org/2000/svg"><path d="M33.085 26.483v-14.1h4.87c1.686 0 2.965.33 3.837.988.872.652 1.308 1.61 1.308 2.876 0 .69-.175 1.301-.525 1.83a3.05 3.05 0 0 1-1.46 1.153c.712.18 1.272.545 1.68 1.094.413.549.62 1.22.62 2.014 0 1.356-.426 2.383-1.28 3.08-.852.697-2.068 1.052-3.646 1.065h-5.404Zm2.864-6.14v3.806h2.454c.675 0 1.2-.161 1.575-.484.382-.33.573-.781.573-1.356 0-1.29-.659-1.946-1.976-1.966h-2.626Zm0-2.053h2.12c1.444-.025 2.167-.61 2.167-1.752 0-.64-.185-1.098-.554-1.376-.363-.284-.939-.426-1.728-.426H35.95v3.554Zm17.988 2.082h-5.5v3.777h6.454v2.334h-9.318v-14.1h9.3v2.353h-6.436v3.36h5.5v2.276Zm7.78.95h-2.281v5.161h-2.864v-14.1h5.164c1.643 0 2.91.371 3.8 1.114.892.742 1.337 1.791 1.337 3.147 0 .962-.207 1.766-.62 2.412-.407.639-1.028 1.149-1.862 1.53l3.007 5.762v.135h-3.074l-2.606-5.161Zm-2.281-2.354h2.31c.72 0 1.277-.184 1.671-.552.394-.374.592-.887.592-1.54 0-.664-.188-1.187-.563-1.568-.37-.381-.94-.572-1.71-.572h-2.3v4.232Zm14.77 2.354h-2.282v5.161h-2.865v-14.1h5.166c1.642 0 2.909.371 3.8 1.114.89.742 1.336 1.791 1.336 3.147 0 .962-.207 1.766-.62 2.412-.408.639-1.028 1.149-1.862 1.53l3.007 5.762v.135h-3.074l-2.606-5.161Zm-2.282-2.354h2.31c.72 0 1.276-.184 1.671-.552.395-.374.592-.887.592-1.54 0-.664-.188-1.187-.563-1.568-.37-.381-.94-.572-1.71-.572h-2.3v4.232Zm13.958-.232 2.893-6.353h3.131l-4.563 8.987v5.113H84.43V21.37l-4.564-8.987h3.141l2.874 6.353ZM10.987 31.583C4.928 31.583 0 26.625 0 20.532 0 14.438 4.929 9.48 10.987 9.48s10.987 4.958 10.987 11.052c0 6.093-4.928 11.051-10.987 11.051Zm0-21.048c-5.48 0-9.938 4.484-9.938 9.996 0 5.512 4.459 9.996 9.938 9.996 5.48 0 9.938-4.485 9.938-9.997s-4.458-9.995-9.938-9.995Z" fill="#fff"/><path d="M18.96 21.022c-.342-1.274-3.475-1.412-5.34-.945-.976.246-1.974.565-3.004.749.754.672 1.563 1.308 2.724 1.466 2.881.391 4.671-.518 5.62-1.27Z" fill="#fff"/><path d="M13.34 22.292c-1.164-.158-1.97-.794-2.724-1.466-1.166-1.041-2.203-2.169-4.239-1.745-3.236.675-3.662 4.526-1.163 7.001a7.974 7.974 0 0 0 3.964 2.276 7.941 7.941 0 0 0 4.555-.28 7.99 7.99 0 0 0 3.66-2.744 8.062 8.062 0 0 0 1.567-4.311c-.949.751-2.739 1.66-5.62 1.27ZM15.034 13.958c-.404.87 3.196 1.837 3.627 4.73.207-2.848-3.128-5.807-3.628-4.73ZM7.466 17.593c.65-.27.957-1.02.689-1.672a1.27 1.27 0 0 0-1.662-.692 1.282 1.282 0 0 0-.689 1.671 1.27 1.27 0 0 0 1.662.693ZM10.354 14.08a.785.785 0 0 0 0-1.107.774.774 0 0 0-1.099 0 .785.785 0 0 0 0 1.106.774.774 0 0 0 1.1 0ZM13.1 9.051c1.124-3.337.37-6.003-1.94-7.27-1.577.323-2.513 1.092-3.035 2.152 3.095-.252 5.059 1.697 4.976 5.118ZM25.699 6.136c-5.56-2.007-9.068-1.32-9.62 3.254 3.186 3.306 6.395 1.724 9.62-3.254Z" fill="#fff"/><path d="M21.276 4.325c.258-1.108.392-2.418.412-3.908-5.765 1.291-8.366 3.759-6.404 7.92.098.024.191.043.286.063.458-3.257 2.476-4.462 5.706-4.075Z" fill="#fff"/></svg>