<?xml version="1.0" encoding="utf-8"?>
<!-- Generator: Adobe Illustrator 27.3.1, SVG Export Plug-In . SVG Version: 6.00 Build 0)  -->
<svg version="1.1" id="Layer_1" xmlns="http://www.w3.org/2000/svg" xmlns:xlink="http://www.w3.org/1999/xlink" x="0px" y="0px"
	 viewBox="0 0 284 299" style="enable-background:new 0 0 284 299;" xml:space="preserve">
<style type="text/css">
	.st0{fill:#5270D1;}
	.st1{fill:#FFFFFF;}
	.st2{opacity:0.24;}
	.st3{fill:none;stroke:#5270D1;stroke-width:2;stroke-miterlimit:10;}
	.st4{fill:none;stroke:#000000;stroke-width:4;stroke-miterlimit:10;}
	.st5{fill:#B4DDFC;stroke:#6BAED6;stroke-width:2;stroke-miterlimit:10;}
	.st6{fill:#FEC350;stroke:#D19E43;stroke-width:2;stroke-miterlimit:10;}
	.st7{fill:#5270D1;stroke:#3D5BA5;stroke-width:2;stroke-miterlimit:10;}
	.st8{fill:#3C8E61;stroke:#2C774C;stroke-width:2;stroke-miterlimit:10;}
	.st9{fill:#5FAFE0;stroke:#4799C3;stroke-miterlimit:10;}
	.st10{fill:#F2B64C;stroke:#D19E43;stroke-width:2;stroke-miterlimit:10;}
	.st11{fill:#DB6A3E;stroke:#C6512C;stroke-width:2;stroke-miterlimit:10;}
	.st12{fill:#D1D1D1;stroke:#B7B7B7;stroke-miterlimit:10;}
	.st13{fill:#282828;stroke:#000000;stroke-width:2;stroke-miterlimit:10;}
	.st14{fill:#636363;stroke:#424242;stroke-width:2;stroke-miterlimit:10;}
	.st15{fill:#383838;stroke:#212121;stroke-miterlimit:10;}
	.st16{fill:#FFDAAE;stroke:#F9C893;stroke-width:2;stroke-miterlimit:10;}
	.st17{fill:#1E2E4C;stroke:#09111E;stroke-miterlimit:10;}
	.st18{fill:#DBDBDB;stroke:#09111E;stroke-miterlimit:10;}
	.st19{fill:#FFFFFF;stroke:#09111E;stroke-miterlimit:10;}
	.st20{fill:#B24D4D;stroke:#9B3D3D;stroke-miterlimit:10;}
	.st21{fill:#3C8E61;}
	.st22{fill:#4CB47E;}
	.st23{fill:#D19E43;}
	.st24{fill:#BCBCBC;stroke:#828282;stroke-width:2;stroke-miterlimit:10;}
	.st25{fill:#383838;stroke:#212121;stroke-width:2;stroke-miterlimit:10;}
	.st26{fill:#F2F2F2;stroke:#D3D3D3;stroke-width:2;stroke-miterlimit:10;}
	.st27{fill:#C9597C;}
	.st28{fill:#4C66A5;}
	.st29{fill:#5296D1;}
	.st30{fill:#F9C66B;}
	.st31{fill:#D87252;}
	.st32{fill:#222F44;}
</style>
<g>
	<path class="st4" d="M194.18,232.57H89.82c-17.06,0-30.89-13.83-30.89-30.89V97.32c0-17.06,13.83-30.89,30.89-30.89h104.36
		c17.06,0,30.89,13.83,30.89,30.89v104.36C225.07,218.74,211.24,232.57,194.18,232.57z"/>
	<g>
		<path class="st5" d="M172.66,208.84H103.6c-7.93,0-14.36-6.43-14.36-14.36v-89.95c0-7.93,6.43-14.36,14.36-14.36h69.06
			c7.93,0,14.36,6.43,14.36,14.36v89.95C187.02,202.41,180.59,208.84,172.66,208.84z"/>
		<path class="st6" d="M148.41,168.49c-4.19,0-7.6,3.41-7.6,7.6v28.48h14.24v-36.08H148.41z"/>
		<path class="st7" d="M168.35,158.99c-4.19,0-7.6,3.41-7.6,7.6v37.98h14.24v-45.57H168.35z"/>
		<path class="st8" d="M188.28,149.5c-4.19,0-7.6,3.41-7.6,7.6v47.47h14.24V149.5H188.28z"/>
		<g>
			<g>
				<g>
					<path class="st9" d="M170.33,113.76h-64.4c-1.18,0-2.14-1-2.14-2.24c0-1.24,0.96-2.24,2.14-2.24h64.4c1.18,0,2.14,1,2.14,2.24
						C172.47,112.76,171.51,113.76,170.33,113.76z"/>
				</g>
			</g>
			<g>
				<g>
					<path class="st9" d="M170.33,124.68h-64.4c-1.18,0-2.14-1-2.14-2.24c0-1.24,0.96-2.24,2.14-2.24h64.4c1.18,0,2.14,1,2.14,2.24
						C172.47,123.68,171.51,124.68,170.33,124.68z"/>
				</g>
			</g>
			<g>
				<g>
					<path class="st9" d="M170.33,135.6h-64.4c-1.18,0-2.14-1-2.14-2.24c0-1.24,0.96-2.24,2.14-2.24h64.4c1.18,0,2.14,1,2.14,2.24
						C172.47,134.6,171.51,135.6,170.33,135.6z"/>
				</g>
			</g>
			<g>
				<g>
					<path class="st9" d="M170.33,146.52h-64.4c-1.18,0-2.14-1-2.14-2.24c0-1.24,0.96-2.24,2.14-2.24h64.4c1.18,0,2.14,1,2.14,2.24
						C172.47,145.52,171.51,146.52,170.33,146.52z"/>
				</g>
			</g>
			<g>
				<g>
					<path class="st9" d="M130.45,186.39h-24.52c-1.18,0-2.14-1-2.14-2.24c0-1.24,0.96-2.24,2.14-2.24h24.52
						c1.18,0,2.14,1,2.14,2.24C132.59,185.39,131.63,186.39,130.45,186.39z"/>
				</g>
			</g>
			<g>
				<g>
					<path class="st9" d="M164.23,152.96c-2.68,0.81-5.01,2.39-6.76,4.48h-51.44c-1.24,0-2.24-1-2.24-2.24l0,0
						c0-1.24,1-2.24,2.24-2.24H164.23z"/>
				</g>
			</g>
			<g>
				<g>
					<path class="st9" d="M141.08,163.87c-1.86,1.13-3.45,2.66-4.62,4.48h-30.43c-1.24,0-2.24-1-2.24-2.24l0,0
						c0-1.24,1-2.24,2.24-2.24H141.08z"/>
				</g>
			</g>
		</g>
	</g>
</g>
</svg>
