<?xml version="1.0" encoding="utf-8"?>
<!-- Generator: Adobe Illustrator 27.3.1, SVG Export Plug-In . SVG Version: 6.00 Build 0)  -->
<svg version="1.1" id="Layer_1" xmlns="http://www.w3.org/2000/svg" xmlns:xlink="http://www.w3.org/1999/xlink" x="0px" y="0px"
	 viewBox="0 0 284 299" style="enable-background:new 0 0 284 299;" xml:space="preserve">
<style type="text/css">
	.st0{fill:#5270D1;}
	.st1{fill:#FFFFFF;}
	.st2{opacity:0.24;}
	.st3{fill:none;stroke:#5270D1;stroke-width:2;stroke-miterlimit:10;}
	.st4{fill:none;stroke:#000000;stroke-width:4;stroke-miterlimit:10;}
	.st5{fill:#B4DDFC;stroke:#6BAED6;stroke-width:2;stroke-miterlimit:10;}
	.st6{fill:#FEC350;stroke:#D19E43;stroke-width:2;stroke-miterlimit:10;}
	.st7{fill:#5270D1;stroke:#3D5BA5;stroke-width:2;stroke-miterlimit:10;}
	.st8{fill:#3C8E61;stroke:#2C774C;stroke-width:2;stroke-miterlimit:10;}
	.st9{fill:#5FAFE0;stroke:#4799C3;stroke-miterlimit:10;}
	.st10{fill:#F2B64C;stroke:#D19E43;stroke-width:2;stroke-miterlimit:10;}
	.st11{fill:#DB6A3E;stroke:#C6512C;stroke-width:2;stroke-miterlimit:10;}
	.st12{fill:#D1D1D1;stroke:#B7B7B7;stroke-miterlimit:10;}
	.st13{fill:#282828;stroke:#000000;stroke-width:2;stroke-miterlimit:10;}
	.st14{fill:#636363;stroke:#424242;stroke-width:2;stroke-miterlimit:10;}
	.st15{fill:#383838;stroke:#212121;stroke-miterlimit:10;}
	.st16{fill:#FFDAAE;stroke:#F9C893;stroke-width:2;stroke-miterlimit:10;}
	.st17{fill:#1E2E4C;stroke:#09111E;stroke-miterlimit:10;}
	.st18{fill:#DBDBDB;stroke:#09111E;stroke-miterlimit:10;}
	.st19{fill:#FFFFFF;stroke:#09111E;stroke-miterlimit:10;}
	.st20{fill:#B24D4D;stroke:#9B3D3D;stroke-miterlimit:10;}
	.st21{fill:#3C8E61;}
	.st22{fill:#4CB47E;}
	.st23{fill:#D19E43;}
	.st24{fill:#BCBCBC;stroke:#828282;stroke-width:2;stroke-miterlimit:10;}
	.st25{fill:#383838;stroke:#212121;stroke-width:2;stroke-miterlimit:10;}
	.st26{fill:#F2F2F2;stroke:#D3D3D3;stroke-width:2;stroke-miterlimit:10;}
	.st27{fill:#C9597C;}
	.st28{fill:#4C66A5;}
	.st29{fill:#5296D1;}
	.st30{fill:#F9C66B;}
	.st31{fill:#D87252;}
	.st32{fill:#222F44;}
</style>
<g>
	<g>
		<path class="st4" d="M194.18,66.43H89.82c-17.06,0-30.89,13.83-30.89,30.89v104.36c0,17.06,13.83,30.89,30.89,30.89h104.36
			c17.06,0,30.89-13.83,30.89-30.89V97.32C225.07,80.26,211.24,66.43,194.18,66.43z"/>
	</g>
	<g>
		<path class="st21" d="M182.97,136.67c-3.46-1.11-6.15-4-6.98-7.58c-0.2-0.81-0.91-1.42-1.76-1.42h-64.44
			c-0.87,0-1.59,0.61-1.76,1.42c-0.86,3.58-3.53,6.47-7.01,7.58c-0.75,0.23-1.26,0.91-1.26,1.72v23.18c0,0.79,0.51,1.46,1.26,1.7
			c3.23,1.03,5.76,3.58,6.79,6.78c0.24,0.76,0.91,1.29,1.7,1.29h64.97c0.79,0,1.47-0.53,1.7-1.29c1.03-3.2,3.58-5.75,6.79-6.78
			c0.75-0.24,1.28-0.91,1.28-1.7v-23.18C184.25,137.58,183.72,136.9,182.97,136.67z M142.01,162.79c-7.34,0-13.3-5.95-13.3-13.29
			c0-7.33,5.96-13.29,13.3-13.29c7.33,0,13.29,5.96,13.29,13.29C155.3,156.84,149.34,162.79,142.01,162.79z M169.06,153.78
			c-2.37,0-4.27-1.92-4.27-4.28c0-2.37,1.9-4.27,4.27-4.27c2.36,0,4.28,1.9,4.28,4.27C173.34,151.86,171.42,153.78,169.06,153.78z"
			/>
		<path class="st4" d="M140.9,150.08c-0.2-0.72-0.5-1.23-1.03-1.45v-0.02c0.67-0.23,1.36-0.91,1.36-1.9c0-0.71-0.25-1.24-0.71-1.6
			c-0.55-0.43-1.34-0.61-2.49-0.61c-0.91,0-1.74,0.08-2.29,0.16v7.57h1.72v-3h0.51c0.71,0,1.03,0.25,1.25,1.22
			c0.23,0.95,0.41,1.57,0.53,1.78h1.78C141.37,151.94,141.14,150.95,140.9,150.08z M138.13,147.98h-0.67v-2.14
			c0.12-0.02,0.35-0.04,0.77-0.04c0.79,0,1.28,0.36,1.28,1.05C139.51,147.53,139,147.98,138.13,147.98z"/>
		<path class="st4" d="M145.96,146.56c-0.81,0-1.44,0.29-1.86,0.89h-0.02l-0.08-0.78h-1.5c0.02,0.52,0.04,1.13,0.04,1.86v5.96h1.72
			v-2.77h0.04c0.24,0.37,0.77,0.65,1.44,0.65c1.25,0,2.52-0.97,2.52-2.99C148.26,147.6,147.17,146.56,145.96,146.56z M145.33,151.03
			c-0.52,0-0.91-0.36-1.03-0.81c-0.02-0.1-0.04-0.24-0.04-0.36v-0.77c0-0.12,0.02-0.22,0.04-0.32c0.12-0.51,0.55-0.87,1.05-0.87
			c0.77,0,1.17,0.67,1.17,1.56C146.52,150.39,146.08,151.03,145.33,151.03z"/>
		<g>
			<g>
				<path class="st22" d="M186.17,133.36c-0.02,0-0.02,0-0.02,0c-0.65,0-1.3-0.1-1.9-0.27c-2.45-0.74-4.31-2.85-4.68-5.42
					c-0.04-0.32-0.06-0.64-0.06-0.95c0-0.28,0.02-0.56,0.04-0.81c0.14-1.09-0.7-2.04-1.76-2.04h-71.56c-1.09,0-1.9,0.95-1.78,2.04
					c0.03,0.25,0.05,0.53,0.05,0.81c0,0.31-0.02,0.63-0.07,0.95c-0.36,2.57-2.24,4.68-4.67,5.42c-0.62,0.17-1.25,0.27-1.9,0.27
					c-0.02,0-0.02,0-0.02,0c-1.03,0-1.88,0.77-1.88,1.8v29.63c0,1.03,0.85,1.8,1.88,1.8c0,0,0,0,0.02,0c0.65,0,1.28,0.1,1.9,0.28
					c2.13,0.63,3.83,2.33,4.47,4.47c0.18,0.59,0.27,1.25,0.27,1.9c0,0,0,0,0,0.02c0,1.03,0.78,1.88,1.78,1.88h71.43
					c1.03,0,1.8-0.85,1.8-1.88c0-0.02,0-0.02,0-0.02c0-0.65,0.08-1.31,0.27-1.9c0.64-2.14,2.34-3.84,4.47-4.47
					c0.6-0.18,1.25-0.28,1.9-0.28c0,0,0,0,0.02,0c1.01,0,1.88-0.77,1.88-1.8v-29.63C188.05,134.13,187.18,133.36,186.17,133.36z
					 M184.25,161.57c0,0.79-0.53,1.46-1.28,1.7c-3.21,1.03-5.76,3.58-6.79,6.78c-0.23,0.76-0.91,1.29-1.7,1.29h-64.97
					c-0.79,0-1.46-0.53-1.7-1.29c-1.03-3.2-3.56-5.75-6.79-6.78c-0.75-0.24-1.26-0.91-1.26-1.7v-23.18c0-0.81,0.51-1.49,1.26-1.72
					c3.48-1.11,6.15-4,7.01-7.58c0.17-0.81,0.89-1.42,1.76-1.42h64.44c0.85,0,1.56,0.61,1.76,1.42c0.83,3.58,3.52,6.47,6.98,7.58
					c0.75,0.23,1.28,0.91,1.28,1.72V161.57z"/>
				<path class="st22" d="M140.9,150.08c-0.2-0.72-0.5-1.23-1.03-1.45v-0.02c0.67-0.23,1.36-0.91,1.36-1.9
					c0-0.71-0.25-1.24-0.71-1.6c-0.55-0.43-1.34-0.61-2.49-0.61c-0.91,0-1.74,0.08-2.29,0.16v7.57h1.72v-3h0.51
					c0.71,0,1.03,0.25,1.25,1.22c0.23,0.95,0.41,1.57,0.53,1.78h1.78C141.37,151.94,141.14,150.95,140.9,150.08z M138.13,147.98
					h-0.67v-2.14c0.12-0.02,0.35-0.04,0.77-0.04c0.79,0,1.28,0.36,1.28,1.05C139.51,147.53,139,147.98,138.13,147.98z"/>
				<path class="st22" d="M145.33,151.03c-0.52,0-0.91-0.36-1.03-0.81c-0.02-0.1-0.04-0.24-0.04-0.36v-0.77
					c0-0.12,0.02-0.22,0.04-0.32c0.12-0.51,0.55-0.87,1.05-0.87c0.77,0,1.17,0.67,1.17,1.56
					C146.52,150.39,146.08,151.03,145.33,151.03z"/>
				<g>
					<path class="st6" d="M114.95,153.78c-2.37,0-4.27-1.92-4.27-4.27c0-2.37,1.9-4.27,4.27-4.27c2.35,0,4.27,1.9,4.27,4.27
						C119.22,151.86,117.3,153.78,114.95,153.78z"/>
				</g>
			</g>
		</g>
		<path class="st8" d="M188.07,118.65H95.94c-4.61,0-8.35,3.74-8.35,8.32v45.04c0,4.61,3.74,8.35,8.35,8.35h92.13
			c4.59,0,8.33-3.74,8.33-8.35v-45.04C196.4,122.39,192.66,118.65,188.07,118.65z M188.05,164.79c0,1.03-0.87,1.8-1.88,1.8
			c-0.02,0-0.02,0-0.02,0c-0.65,0-1.3,0.1-1.9,0.28c-2.13,0.63-3.83,2.33-4.47,4.47c-0.19,0.59-0.27,1.25-0.27,1.9c0,0,0,0,0,0.02
			c0,1.03-0.77,1.88-1.8,1.88h-71.43c-1,0-1.78-0.85-1.78-1.88c0-0.02,0-0.02,0-0.02c0-0.65-0.09-1.31-0.27-1.9
			c-0.64-2.14-2.34-3.84-4.47-4.47c-0.62-0.18-1.25-0.28-1.9-0.28c-0.02,0-0.02,0-0.02,0c-1.03,0-1.88-0.77-1.88-1.8v-29.63
			c0-1.03,0.85-1.8,1.88-1.8c0,0,0,0,0.02,0c0.65,0,1.28-0.1,1.9-0.27c2.43-0.74,4.31-2.85,4.67-5.42c0.05-0.32,0.07-0.64,0.07-0.95
			c0-0.28-0.02-0.56-0.05-0.81c-0.12-1.09,0.69-2.04,1.78-2.04h71.56c1.06,0,1.9,0.95,1.76,2.04c-0.02,0.25-0.04,0.53-0.04,0.81
			c0,0.31,0.02,0.63,0.06,0.95c0.37,2.57,2.23,4.68,4.68,5.42c0.6,0.17,1.25,0.27,1.9,0.27c0,0,0,0,0.02,0
			c1.01,0,1.88,0.77,1.88,1.8V164.79z"/>
		<g>
			<path class="st6" d="M142.01,136.21c-7.34,0-13.3,5.96-13.3,13.29c0,7.34,5.96,13.29,13.3,13.29c7.33,0,13.29-5.95,13.29-13.29
				C155.3,142.17,149.34,136.21,142.01,136.21z"/>
		</g>
		<path class="st6" d="M173.34,149.5c0,2.36-1.92,4.28-4.28,4.28c-2.37,0-4.27-1.92-4.27-4.28c0-2.37,1.9-4.27,4.27-4.27
			C171.42,145.23,173.34,147.13,173.34,149.5z"/>
		<g>
			<path class="st23" d="M140.91,150.08c-0.2-0.71-0.49-1.23-1.03-1.44v-0.02c0.67-0.24,1.36-0.91,1.36-1.9
				c0-0.71-0.26-1.25-0.71-1.6c-0.55-0.44-1.34-0.61-2.49-0.61c-0.91,0-1.74,0.08-2.29,0.16v7.58h1.72v-3.01h0.51
				c0.71,0,1.03,0.26,1.25,1.23c0.24,0.95,0.42,1.56,0.53,1.78h1.78C141.38,151.94,141.14,150.95,140.91,150.08z M138.14,147.99
				h-0.67v-2.14c0.12-0.02,0.36-0.04,0.77-0.04c0.79,0,1.29,0.36,1.29,1.05C139.52,147.53,139.01,147.99,138.14,147.99z"/>
			<path class="st23" d="M145.97,146.56c-0.81,0-1.44,0.3-1.86,0.89h-0.02l-0.08-0.77h-1.5c0.02,0.51,0.04,1.13,0.04,1.86v5.95h1.72
				v-2.77h0.04c0.24,0.38,0.77,0.65,1.44,0.65c1.25,0,2.51-0.97,2.51-2.99C148.27,147.61,147.18,146.56,145.97,146.56z
				 M145.34,151.03c-0.51,0-0.91-0.36-1.03-0.81c-0.02-0.1-0.04-0.24-0.04-0.36v-0.77c0-0.12,0.02-0.22,0.04-0.32
				c0.12-0.51,0.55-0.87,1.05-0.87c0.77,0,1.17,0.67,1.17,1.56C146.52,150.4,146.09,151.03,145.34,151.03z"/>
		</g>
	</g>
</g>
</svg>
