<?xml version="1.0" encoding="utf-8"?>
<!-- Generator: Adobe Illustrator 27.3.1, SVG Export Plug-In . SVG Version: 6.00 Build 0)  -->
<svg version="1.1" id="Layer_1" xmlns="http://www.w3.org/2000/svg" xmlns:xlink="http://www.w3.org/1999/xlink" x="0px" y="0px"
	 viewBox="0 0 284 299" style="enable-background:new 0 0 284 299;" xml:space="preserve">
<style type="text/css">
	.st0{fill:#5270D1;}
	.st1{fill:#FFFFFF;}
	.st2{opacity:0.24;}
	.st3{fill:none;stroke:#5270D1;stroke-width:2;stroke-miterlimit:10;}
	.st4{fill:none;stroke:#000000;stroke-width:4;stroke-miterlimit:10;}
	.st5{fill:#B4DDFC;stroke:#6BAED6;stroke-width:2;stroke-miterlimit:10;}
	.st6{fill:#FEC350;stroke:#D19E43;stroke-width:2;stroke-miterlimit:10;}
	.st7{fill:#5270D1;stroke:#3D5BA5;stroke-width:2;stroke-miterlimit:10;}
	.st8{fill:#3C8E61;stroke:#2C774C;stroke-width:2;stroke-miterlimit:10;}
	.st9{fill:#5FAFE0;stroke:#4799C3;stroke-miterlimit:10;}
	.st10{fill:#F2B64C;stroke:#D19E43;stroke-width:2;stroke-miterlimit:10;}
	.st11{fill:#DB6A3E;stroke:#C6512C;stroke-width:2;stroke-miterlimit:10;}
	.st12{fill:#D1D1D1;stroke:#B7B7B7;stroke-miterlimit:10;}
	.st13{fill:#282828;stroke:#000000;stroke-width:2;stroke-miterlimit:10;}
	.st14{fill:#636363;stroke:#424242;stroke-width:2;stroke-miterlimit:10;}
	.st15{fill:#383838;stroke:#212121;stroke-miterlimit:10;}
	.st16{fill:#FFDAAE;stroke:#F9C893;stroke-width:2;stroke-miterlimit:10;}
	.st17{fill:#1E2E4C;stroke:#09111E;stroke-miterlimit:10;}
	.st18{fill:#DBDBDB;stroke:#09111E;stroke-miterlimit:10;}
	.st19{fill:#FFFFFF;stroke:#09111E;stroke-miterlimit:10;}
	.st20{fill:#B24D4D;stroke:#9B3D3D;stroke-miterlimit:10;}
	.st21{fill:#3C8E61;}
	.st22{fill:#4CB47E;}
	.st23{fill:#D19E43;}
	.st24{fill:#BCBCBC;stroke:#828282;stroke-width:2;stroke-miterlimit:10;}
	.st25{fill:#383838;stroke:#212121;stroke-width:2;stroke-miterlimit:10;}
	.st26{fill:#F2F2F2;stroke:#D3D3D3;stroke-width:2;stroke-miterlimit:10;}
	.st27{fill:#C9597C;}
	.st28{fill:#4C66A5;}
	.st29{fill:#5296D1;}
	.st30{fill:#F9C66B;}
	.st31{fill:#D87252;}
	.st32{fill:#222F44;}
</style>
<g>
	<path class="st30" d="M225.07,97.32v104.36c0,17.07-13.83,30.9-30.9,30.9H89.82c-17.07,0-30.9-13.83-30.9-30.9V97.32
		c0-17.07,13.83-30.9,30.9-30.9h104.36C211.25,66.43,225.07,80.25,225.07,97.32z"/>
	<g>
		<path class="st1" d="M164.06,100.87c-0.01,0-0.02-0.01-0.03-0.02c-0.06-0.05-0.13-0.1-0.21-0.14l-0.07-0.03l-0.68-0.35l-0.04-0.01
			l-20.3-10.05c-0.49-0.25-1.09-0.05-1.33,0.44c-0.25,0.5-0.05,1.09,0.45,1.34l15.78,7.81h-32.02l12.66-4.88
			c0.51-0.2,0.76-0.77,0.57-1.29c-0.2-0.51-0.78-0.77-1.29-0.57l-17.79,6.86h-0.01c-2.71,0.56-4.76,2.97-4.76,5.85v39.79
			c0,3.29,2.67,5.97,5.96,5.97h39.8c3.29,0,5.96-2.68,5.96-5.97v-39.79C166.71,103.76,165.66,101.94,164.06,100.87z M138.33,111.26
			l2.52-1.99l2.52,1.99l2.52,1.99h-1.97v7.74h-6.14v-7.74h-1.97L138.33,111.26z M151.17,149.6h-20.64v-10.42c0-2.21,1.8-4,4-4h12.64
			c2.21,0,4,1.79,4,4V149.6z"/>
		<g>
			<g>
				<path class="st1" d="M136.58,158.12c-0.01-0.01-0.01-0.01-0.02-0.02c-0.09-0.06-0.19-0.12-0.29-0.17l-0.68-0.35l-0.04-0.01
					c-0.7-0.3-1.47-0.46-2.28-0.46H93.48c-0.41,0-0.81,0.04-1.2,0.12h-0.01c-2.71,0.56-4.76,2.97-4.76,5.85v39.79
					c0,3.29,2.68,5.97,5.97,5.97h39.79c3.29,0,5.97-2.68,5.97-5.97v-39.79C139.24,161.01,138.18,159.19,136.58,158.12z
					 M107.85,163.18h11.04v11.04h-11.04V163.18z M123.7,206.85h-20.65v-10.43c0-2.2,1.8-4,4-4h12.65c2.2,0,4,1.8,4,4V206.85z"/>
			</g>
			<g>
				<path class="st1" d="M193.83,158.12c-0.01-0.01-0.01-0.01-0.02-0.02c-0.09-0.06-0.19-0.12-0.29-0.17l-0.68-0.35l-0.04-0.01
					c-0.7-0.3-1.48-0.46-2.28-0.46h-39.79c-0.41,0-0.81,0.04-1.2,0.12h-0.01c-2.71,0.56-4.76,2.97-4.76,5.85v39.79
					c0,3.29,2.67,5.97,5.97,5.97h39.79c3.29,0,5.97-2.68,5.97-5.97v-39.79C196.49,161.01,195.43,159.19,193.83,158.12z
					 M170.62,163.18c3.05,0,5.52,2.47,5.52,5.52c0,3.05-2.47,5.52-5.52,5.52c-3.05,0-5.52-2.47-5.52-5.52
					C165.1,165.65,167.57,163.18,170.62,163.18z M180.94,206.85H160.3v-10.43c0-2.2,1.8-4,4-4h12.64c2.21,0,4,1.8,4,4V206.85z"/>
			</g>
		</g>
	</g>
</g>
</svg>
