<?xml version="1.0" encoding="utf-8"?>
<!-- Generator: Adobe Illustrator 27.3.1, SVG Export Plug-In . SVG Version: 6.00 Build 0)  -->
<svg version="1.1" id="Layer_1" xmlns="http://www.w3.org/2000/svg" xmlns:xlink="http://www.w3.org/1999/xlink" x="0px" y="0px"
	 viewBox="0 0 284 299" style="enable-background:new 0 0 284 299;" xml:space="preserve">
<style type="text/css">
	.st0{fill:#5270D1;}
	.st1{fill:#FFFFFF;}
	.st2{opacity:0.24;}
	.st3{fill:none;stroke:#5270D1;stroke-width:2;stroke-miterlimit:10;}
	.st4{fill:none;stroke:#000000;stroke-width:4;stroke-miterlimit:10;}
	.st5{fill:#B4DDFC;stroke:#6BAED6;stroke-width:2;stroke-miterlimit:10;}
	.st6{fill:#FEC350;stroke:#D19E43;stroke-width:2;stroke-miterlimit:10;}
	.st7{fill:#5270D1;stroke:#3D5BA5;stroke-width:2;stroke-miterlimit:10;}
	.st8{fill:#3C8E61;stroke:#2C774C;stroke-width:2;stroke-miterlimit:10;}
	.st9{fill:#5FAFE0;stroke:#4799C3;stroke-miterlimit:10;}
	.st10{fill:#F2B64C;stroke:#D19E43;stroke-width:2;stroke-miterlimit:10;}
	.st11{fill:#DB6A3E;stroke:#C6512C;stroke-width:2;stroke-miterlimit:10;}
	.st12{fill:#D1D1D1;stroke:#B7B7B7;stroke-miterlimit:10;}
	.st13{fill:#282828;stroke:#000000;stroke-width:2;stroke-miterlimit:10;}
	.st14{fill:#636363;stroke:#424242;stroke-width:2;stroke-miterlimit:10;}
	.st15{fill:#383838;stroke:#212121;stroke-miterlimit:10;}
	.st16{fill:#FFDAAE;stroke:#F9C893;stroke-width:2;stroke-miterlimit:10;}
	.st17{fill:#1E2E4C;stroke:#09111E;stroke-miterlimit:10;}
	.st18{fill:#DBDBDB;stroke:#09111E;stroke-miterlimit:10;}
	.st19{fill:#FFFFFF;stroke:#09111E;stroke-miterlimit:10;}
	.st20{fill:#B24D4D;stroke:#9B3D3D;stroke-miterlimit:10;}
	.st21{fill:#3C8E61;}
	.st22{fill:#4CB47E;}
	.st23{fill:#D19E43;}
	.st24{fill:#BCBCBC;stroke:#828282;stroke-width:2;stroke-miterlimit:10;}
	.st25{fill:#383838;stroke:#212121;stroke-width:2;stroke-miterlimit:10;}
	.st26{fill:#F2F2F2;stroke:#D3D3D3;stroke-width:2;stroke-miterlimit:10;}
	.st27{fill:#C9597C;}
	.st28{fill:#4C66A5;}
	.st29{fill:#5296D1;}
	.st30{fill:#F9C66B;}
	.st31{fill:#D87252;}
	.st32{fill:#222F44;}
</style>
<g>
	<path class="st31" d="M194.18,232.57H89.82c-17.06,0-30.89-13.83-30.89-30.89V97.32c0-17.06,13.83-30.89,30.89-30.89h104.36
		c17.06,0,30.89,13.83,30.89,30.89v104.36C225.07,218.74,211.24,232.57,194.18,232.57z"/>
	<g>
		<path class="st1" d="M94.67,134.49l5.78-11.25h5.59l-6.95,13.53c-0.41,0.8-1.73,0.93-2.96,0.31
			C94.92,136.44,94.26,135.29,94.67,134.49z"/>
		<path class="st1" d="M184.9,136.77l-6.95-13.53h5.59l5.78,11.25c0.41,0.8-0.24,1.96-1.47,2.59
			C186.63,137.7,185.31,137.57,184.9,136.77z"/>
		<path class="st1" d="M201.48,132.93v3.96c0,5.36-4.34,9.69-9.69,9.69H92.22c-5.36,0-9.69-4.34-9.69-9.69v-3.96
			c0-5.36,4.34-9.69,9.69-9.69h3.24l-4.74,9.22c-1.56,3.02-0.07,6.79,3.4,8.59c1.13,0.57,2.36,0.87,3.55,0.87
			c2.37,0,4.38-1.16,5.39-3.11l7.99-15.56h61.9l7.99,15.56c1,1.96,3.02,3.11,5.39,3.11c1.19,0,2.41-0.3,3.57-0.89
			c3.45-1.78,4.92-5.55,3.38-8.57l-4.74-9.22h3.24C197.14,123.24,201.48,127.57,201.48,132.93z"/>
		<path class="st1" d="M191.78,151.02H92.22c-0.46,0-0.9-0.02-1.35-0.06l4.55,52.79c0.26,2.88,2.66,5.08,5.55,5.08h82.06
			c2.89,0,5.29-2.2,5.54-5.08l4.56-52.79C192.68,151,192.24,151.02,191.78,151.02z M113.36,197.48c0,0.98-1.11,1.76-2.49,1.76
			c-1.37,0-2.49-0.78-2.49-1.76v-36.29c0-0.98,1.12-1.76,2.49-1.76c1.38,0,2.49,0.78,2.49,1.76V197.48z M128.93,197.48
			c0,0.98-1.12,1.76-2.49,1.76c-1.38,0-2.5-0.78-2.5-1.76v-36.29c0-0.98,1.12-1.76,2.5-1.76c1.37,0,2.49,0.78,2.49,1.76V197.48z
			 M144.49,197.48c0,0.98-1.12,1.76-2.49,1.76c-1.38,0-2.49-0.78-2.49-1.76v-36.29c0-0.98,1.11-1.76,2.49-1.76
			c1.37,0,2.49,0.78,2.49,1.76V197.48z M160.05,197.48c0,0.98-1.11,1.76-2.49,1.76c-1.37,0-2.49-0.78-2.49-1.76v-36.29
			c0-0.98,1.12-1.76,2.49-1.76c1.38,0,2.49,0.78,2.49,1.76V197.48z M175.62,197.48c0,0.98-1.12,1.76-2.49,1.76
			c-1.38,0-2.49-0.78-2.49-1.76v-36.29c0-0.98,1.11-1.76,2.49-1.76c1.37,0,2.49,0.78,2.49,1.76V197.48z"/>
		<g>
			<g>
				<g>
					<path class="st1" d="M121.51,93.14l-15.46,30.09l-6.95,13.53c-0.41,0.8-1.73,0.93-2.96,0.31c-1.22-0.63-1.88-1.79-1.47-2.59
						l5.78-11.25l16.63-32.37c0.41-0.8,1.73-0.93,2.96-0.31C121.27,91.19,121.92,92.34,121.51,93.14z"/>
					<path class="st1" d="M121.51,93.14l-15.46,30.09l-6.95,13.53c-0.41,0.8-1.73,0.93-2.96,0.31c-1.22-0.63-1.88-1.79-1.47-2.59
						l5.78-11.25l16.63-32.37c0.41-0.8,1.73-0.93,2.96-0.31C121.27,91.19,121.92,92.34,121.51,93.14z"/>
				</g>
			</g>
			<g>
				<g>
					<path class="st1" d="M187.86,137.08c-1.22,0.62-2.55,0.49-2.96-0.31l-6.95-13.53l-15.46-30.09c-0.41-0.8,0.24-1.96,1.47-2.59
						c1.22-0.62,2.55-0.49,2.96,0.31l16.63,32.37l5.78,11.25C189.74,135.29,189.08,136.44,187.86,137.08z"/>
					<path class="st1" d="M187.86,137.08c-1.22,0.62-2.55,0.49-2.96-0.31l-6.95-13.53l-15.46-30.09c-0.41-0.8,0.24-1.96,1.47-2.59
						c1.22-0.62,2.55-0.49,2.96,0.31l16.63,32.37l5.78,11.25C189.74,135.29,189.08,136.44,187.86,137.08z"/>
				</g>
			</g>
		</g>
	</g>
</g>
</svg>
