<?xml version="1.0" encoding="utf-8"?>
<!-- Generator: Adobe Illustrator 27.3.1, SVG Export Plug-In . SVG Version: 6.00 Build 0)  -->
<svg version="1.1" id="Layer_1" xmlns="http://www.w3.org/2000/svg" xmlns:xlink="http://www.w3.org/1999/xlink" x="0px" y="0px"
	 viewBox="0 0 284 299" style="enable-background:new 0 0 284 299;" xml:space="preserve">
<style type="text/css">
	.st0{fill:#5270D1;}
	.st1{fill:#FFFFFF;}
	.st2{opacity:0.24;}
	.st3{fill:none;stroke:#5270D1;stroke-width:2;stroke-miterlimit:10;}
	.st4{fill:none;stroke:#000000;stroke-width:4;stroke-miterlimit:10;}
	.st5{fill:#B4DDFC;stroke:#6BAED6;stroke-width:2;stroke-miterlimit:10;}
	.st6{fill:#FEC350;stroke:#D19E43;stroke-width:2;stroke-miterlimit:10;}
	.st7{fill:#5270D1;stroke:#3D5BA5;stroke-width:2;stroke-miterlimit:10;}
	.st8{fill:#3C8E61;stroke:#2C774C;stroke-width:2;stroke-miterlimit:10;}
	.st9{fill:#5FAFE0;stroke:#4799C3;stroke-miterlimit:10;}
	.st10{fill:#F2B64C;stroke:#D19E43;stroke-width:2;stroke-miterlimit:10;}
	.st11{fill:#DB6A3E;stroke:#C6512C;stroke-width:2;stroke-miterlimit:10;}
	.st12{fill:#D1D1D1;stroke:#B7B7B7;stroke-miterlimit:10;}
	.st13{fill:#282828;stroke:#000000;stroke-width:2;stroke-miterlimit:10;}
	.st14{fill:#636363;stroke:#424242;stroke-width:2;stroke-miterlimit:10;}
	.st15{fill:#383838;stroke:#212121;stroke-miterlimit:10;}
	.st16{fill:#FFDAAE;stroke:#F9C893;stroke-width:2;stroke-miterlimit:10;}
	.st17{fill:#1E2E4C;stroke:#09111E;stroke-miterlimit:10;}
	.st18{fill:#DBDBDB;stroke:#09111E;stroke-miterlimit:10;}
	.st19{fill:#FFFFFF;stroke:#09111E;stroke-miterlimit:10;}
	.st20{fill:#B24D4D;stroke:#9B3D3D;stroke-miterlimit:10;}
	.st21{fill:#3C8E61;}
	.st22{fill:#4CB47E;}
	.st23{fill:#D19E43;}
	.st24{fill:#BCBCBC;stroke:#828282;stroke-width:2;stroke-miterlimit:10;}
	.st25{fill:#383838;stroke:#212121;stroke-width:2;stroke-miterlimit:10;}
	.st26{fill:#F2F2F2;stroke:#D3D3D3;stroke-width:2;stroke-miterlimit:10;}
	.st27{fill:#C9597C;}
	.st28{fill:#4C66A5;}
	.st29{fill:#5296D1;}
	.st30{fill:#F9C66B;}
	.st31{fill:#D87252;}
	.st32{fill:#222F44;}
</style>
<g>
	<path class="st28" d="M194.18,232.57H89.82c-17.06,0-30.89-13.83-30.89-30.89V97.32c0-17.06,13.83-30.89,30.89-30.89h104.36
		c17.06,0,30.89,13.83,30.89,30.89v104.36C225.07,218.74,211.24,232.57,194.18,232.57z"/>
	<g>
		<path class="st1" d="M190.01,169.35H93.99c-2.07,0-4.47,3.25-4.47,7.45v17.58c0,4.2,2.4,7.46,4.47,7.46h96.02
			c2.07,0,4.47-3.26,4.47-7.46V176.8C194.48,172.6,192.08,169.35,190.01,169.35z M190.01,169.35H93.99c-2.07,0-4.47,3.25-4.47,7.45
			v17.58c0,4.2,2.4,7.46,4.47,7.46h96.02c2.07,0,4.47-3.26,4.47-7.46V176.8C194.48,172.6,192.08,169.35,190.01,169.35z
			 M190.01,169.35H93.99c-2.07,0-4.47,3.25-4.47,7.45v17.58c0,4.2,2.4,7.46,4.47,7.46h96.02c2.07,0,4.47-3.26,4.47-7.46V176.8
			C194.48,172.6,192.08,169.35,190.01,169.35z M190.01,169.35H93.99c-2.07,0-4.47,3.25-4.47,7.45v17.58c0,4.2,2.4,7.46,4.47,7.46
			h96.02c2.07,0,4.47-3.26,4.47-7.46V176.8C194.48,172.6,192.08,169.35,190.01,169.35z M190.01,169.35H93.99
			c-2.07,0-4.47,3.25-4.47,7.45v17.58c0,4.2,2.4,7.46,4.47,7.46h96.02c2.07,0,4.47-3.26,4.47-7.46V176.8
			C194.48,172.6,192.08,169.35,190.01,169.35z M190.01,169.35H93.99c-2.07,0-4.47,3.25-4.47,7.45v17.58c0,4.2,2.4,7.46,4.47,7.46
			h96.02c2.07,0,4.47-3.26,4.47-7.46V176.8C194.48,172.6,192.08,169.35,190.01,169.35z M190.01,169.35H93.99
			c-2.07,0-4.47,3.25-4.47,7.45v17.58c0,4.2,2.4,7.46,4.47,7.46h96.02c2.07,0,4.47-3.26,4.47-7.46V176.8
			C194.48,172.6,192.08,169.35,190.01,169.35z M190.01,169.35H93.99c-2.07,0-4.47,3.25-4.47,7.45v17.58c0,4.2,2.4,7.46,4.47,7.46
			h96.02c2.07,0,4.47-3.26,4.47-7.46V176.8C194.48,172.6,192.08,169.35,190.01,169.35z M190.01,169.35H93.99
			c-2.07,0-4.47,3.25-4.47,7.45v17.58c0,4.2,2.4,7.46,4.47,7.46h96.02c2.07,0,4.47-3.26,4.47-7.46V176.8
			C194.48,172.6,192.08,169.35,190.01,169.35z M190.01,169.35H93.99c-2.07,0-4.47,3.25-4.47,7.45v17.58c0,4.2,2.4,7.46,4.47,7.46
			h96.02c2.07,0,4.47-3.26,4.47-7.46V176.8C194.48,172.6,192.08,169.35,190.01,169.35z M190.01,169.35H93.99
			c-2.07,0-4.47,3.25-4.47,7.45v17.58c0,4.2,2.4,7.46,4.47,7.46h96.02c2.07,0,4.47-3.26,4.47-7.46V176.8
			C194.48,172.6,192.08,169.35,190.01,169.35z M190.01,169.35H93.99c-2.07,0-4.47,3.25-4.47,7.45v17.58c0,4.2,2.4,7.46,4.47,7.46
			h96.02c2.07,0,4.47-3.26,4.47-7.46V176.8C194.48,172.6,192.08,169.35,190.01,169.35z M190.01,169.35H93.99
			c-2.07,0-4.47,3.25-4.47,7.45v17.58c0,4.2,2.4,7.46,4.47,7.46h96.02c2.07,0,4.47-3.26,4.47-7.46V176.8
			C194.48,172.6,192.08,169.35,190.01,169.35z M190.01,169.35H93.99c-2.07,0-4.47,3.25-4.47,7.45v17.58c0,4.2,2.4,7.46,4.47,7.46
			h96.02c2.07,0,4.47-3.26,4.47-7.46V176.8C194.48,172.6,192.08,169.35,190.01,169.35z M190.01,169.35H93.99
			c-2.07,0-4.47,3.25-4.47,7.45v17.58c0,4.2,2.4,7.46,4.47,7.46h96.02c2.07,0,4.47-3.26,4.47-7.46V176.8
			C194.48,172.6,192.08,169.35,190.01,169.35z M190.01,169.35H93.99c-2.07,0-4.47,3.25-4.47,7.45v17.58c0,4.2,2.4,7.46,4.47,7.46
			h96.02c2.07,0,4.47-3.26,4.47-7.46V176.8C194.48,172.6,192.08,169.35,190.01,169.35z M190.01,162.35H93.99
			c-6.34,0-11.47,6.47-11.47,14.45v17.58c0,7.99,5.13,14.46,11.47,14.46h96.02c6.33,0,11.47-6.47,11.47-14.46V176.8
			C201.48,168.82,196.34,162.35,190.01,162.35z M197.48,194.38c0,5.67-3.42,10.46-7.47,10.46H93.99c-4.05,0-7.47-4.79-7.47-10.46
			V176.8c0-5.67,3.42-10.45,7.47-10.45h96.02c4.05,0,7.47,4.78,7.47,10.45V194.38z M190.01,169.35H93.99
			c-2.07,0-4.47,3.25-4.47,7.45v17.58c0,4.2,2.4,7.46,4.47,7.46h96.02c2.07,0,4.47-3.26,4.47-7.46V176.8
			C194.48,172.6,192.08,169.35,190.01,169.35z M190.01,169.35H93.99c-2.07,0-4.47,3.25-4.47,7.45v17.58c0,4.2,2.4,7.46,4.47,7.46
			h96.02c2.07,0,4.47-3.26,4.47-7.46V176.8C194.48,172.6,192.08,169.35,190.01,169.35z M190.01,169.35H93.99
			c-2.07,0-4.47,3.25-4.47,7.45v17.58c0,4.2,2.4,7.46,4.47,7.46h96.02c2.07,0,4.47-3.26,4.47-7.46V176.8
			C194.48,172.6,192.08,169.35,190.01,169.35z M190.01,169.35H93.99c-2.07,0-4.47,3.25-4.47,7.45v17.58c0,4.2,2.4,7.46,4.47,7.46
			h96.02c2.07,0,4.47-3.26,4.47-7.46V176.8C194.48,172.6,192.08,169.35,190.01,169.35z M190.01,169.35H93.99
			c-2.07,0-4.47,3.25-4.47,7.45v17.58c0,4.2,2.4,7.46,4.47,7.46h96.02c2.07,0,4.47-3.26,4.47-7.46V176.8
			C194.48,172.6,192.08,169.35,190.01,169.35z M190.01,169.35H93.99c-2.07,0-4.47,3.25-4.47,7.45v17.58c0,4.2,2.4,7.46,4.47,7.46
			h96.02c2.07,0,4.47-3.26,4.47-7.46V176.8C194.48,172.6,192.08,169.35,190.01,169.35z M190.01,169.35H93.99
			c-2.07,0-4.47,3.25-4.47,7.45v17.58c0,4.2,2.4,7.46,4.47,7.46h96.02c2.07,0,4.47-3.26,4.47-7.46V176.8
			C194.48,172.6,192.08,169.35,190.01,169.35z M190.01,169.35H93.99c-2.07,0-4.47,3.25-4.47,7.45v17.58c0,4.2,2.4,7.46,4.47,7.46
			h96.02c2.07,0,4.47-3.26,4.47-7.46V176.8C194.48,172.6,192.08,169.35,190.01,169.35z M190.01,169.35H93.99
			c-2.07,0-4.47,3.25-4.47,7.45v17.58c0,4.2,2.4,7.46,4.47,7.46h96.02c2.07,0,4.47-3.26,4.47-7.46V176.8
			C194.48,172.6,192.08,169.35,190.01,169.35z M190.01,169.35H93.99c-2.07,0-4.47,3.25-4.47,7.45v17.58c0,4.2,2.4,7.46,4.47,7.46
			h96.02c2.07,0,4.47-3.26,4.47-7.46V176.8C194.48,172.6,192.08,169.35,190.01,169.35z M190.01,169.35H93.99
			c-2.07,0-4.47,3.25-4.47,7.45v17.58c0,4.2,2.4,7.46,4.47,7.46h96.02c2.07,0,4.47-3.26,4.47-7.46V176.8
			C194.48,172.6,192.08,169.35,190.01,169.35z M190.01,169.35H93.99c-2.07,0-4.47,3.25-4.47,7.45v17.58c0,4.2,2.4,7.46,4.47,7.46
			h96.02c2.07,0,4.47-3.26,4.47-7.46V176.8C194.48,172.6,192.08,169.35,190.01,169.35z M190.01,169.35H93.99
			c-2.07,0-4.47,3.25-4.47,7.45v17.58c0,4.2,2.4,7.46,4.47,7.46h96.02c2.07,0,4.47-3.26,4.47-7.46V176.8
			C194.48,172.6,192.08,169.35,190.01,169.35z M190.01,169.35H93.99c-2.07,0-4.47,3.25-4.47,7.45v17.58c0,4.2,2.4,7.46,4.47,7.46
			h96.02c2.07,0,4.47-3.26,4.47-7.46V176.8C194.48,172.6,192.08,169.35,190.01,169.35z M190.01,169.35H93.99
			c-2.07,0-4.47,3.25-4.47,7.45v17.58c0,4.2,2.4,7.46,4.47,7.46h96.02c2.07,0,4.47-3.26,4.47-7.46V176.8
			C194.48,172.6,192.08,169.35,190.01,169.35z M190.01,169.35H93.99c-2.07,0-4.47,3.25-4.47,7.45v17.58c0,4.2,2.4,7.46,4.47,7.46
			h96.02c2.07,0,4.47-3.26,4.47-7.46V176.8C194.48,172.6,192.08,169.35,190.01,169.35z M190.01,169.35H93.99
			c-2.07,0-4.47,3.25-4.47,7.45v17.58c0,4.2,2.4,7.46,4.47,7.46h96.02c2.07,0,4.47-3.26,4.47-7.46V176.8
			C194.48,172.6,192.08,169.35,190.01,169.35z"/>
		<path class="st0" d="M194.48,176.8v17.58c0,4.2-2.4,7.46-4.47,7.46H93.99c-2.07,0-4.47-3.26-4.47-7.46V176.8
			c0-4.2,2.4-7.45,4.47-7.45h96.02C192.08,169.35,194.48,172.6,194.48,176.8z"/>
		<path class="st1" d="M194.48,176.8v17.58c0,4.2-2.4,7.46-4.47,7.46H93.99c-2.07,0-4.47-3.26-4.47-7.46V176.8
			c0-4.2,2.4-7.45,4.47-7.45h96.02C192.08,169.35,194.48,172.6,194.48,176.8z"/>
		<g>
			<path class="st1" d="M135.24,101.04h-28.75c-0.36,0-0.7,0.02-1.02,0.06c0.03-5.29,0.26-10.2,0.7-10.55
				c1.45-1.2,2.04,1.3,3.78,1.3c1.73,0,1.73-1.42,3.46-1.42c1.74,0,1.74,1.42,3.47,1.42c1.74,0,1.74-1.42,3.47-1.42
				c1.74,0,1.74,1.42,3.47,1.42c1.74,0,1.74-1.42,3.47-1.42c1.74,0,1.92,1.91,3.6,1.4c1.94-0.6,2.19-2.48,3.64-1.27
				C134.97,90.91,135.21,95.78,135.24,101.04z"/>
			<path class="st1" d="M185.25,114.54c-0.49-4.97-3.81-8.68-7.74-8.68h-71.02c-0.34,0-0.68,0.02-1,0.09
				c-3.48,0.56-6.29,4.06-6.75,8.59l-4.25,43h95.02L185.25,114.54z M136.55,130.55c0,1.63-1.12,2.96-2.51,2.96h-28.77
				c-1.39,0-2.51-1.33-2.51-2.96v-7.02c0-1.64,1.12-2.96,2.51-2.96h28.77c1.39,0,2.51,1.32,2.51,2.96V130.55z M148.15,144.5
				c0,0.46-0.22,0.82-0.49,0.82h-5.63c-0.27,0-0.49-0.36-0.49-0.82v-1.95c0-0.45,0.22-0.82,0.49-0.82h5.63
				c0.27,0,0.49,0.37,0.49,0.82V144.5z M148.15,137.48c0,0.46-0.22,0.82-0.49,0.82h-5.63c-0.27,0-0.49-0.36-0.49-0.82v-1.95
				c0-0.45,0.22-0.82,0.49-0.82h5.63c0.27,0,0.49,0.37,0.49,0.82V137.48z M148.15,130.46c0,0.46-0.22,0.82-0.49,0.82h-5.63
				c-0.27,0-0.49-0.36-0.49-0.82v-1.95c0-0.45,0.22-0.82,0.49-0.82h5.63c0.27,0,0.49,0.37,0.49,0.82V130.46z M148.15,123.44
				c0,0.46-0.22,0.82-0.49,0.82h-5.63c-0.27,0-0.49-0.36-0.49-0.82v-1.95c0-0.45,0.22-0.82,0.49-0.82h5.63
				c0.27,0,0.49,0.37,0.49,0.82V123.44z M158.76,144.5c0,0.46-0.22,0.82-0.49,0.82h-5.63c-0.27,0-0.49-0.36-0.49-0.82v-1.95
				c0-0.45,0.22-0.82,0.49-0.82h5.63c0.27,0,0.49,0.37,0.49,0.82V144.5z M158.76,137.48c0,0.46-0.22,0.82-0.49,0.82h-5.63
				c-0.27,0-0.49-0.36-0.49-0.82v-1.95c0-0.45,0.22-0.82,0.49-0.82h5.63c0.27,0,0.49,0.37,0.49,0.82V137.48z M158.76,130.46
				c0,0.46-0.22,0.82-0.49,0.82h-5.63c-0.27,0-0.49-0.36-0.49-0.82v-1.95c0-0.45,0.22-0.82,0.49-0.82h5.63
				c0.27,0,0.49,0.37,0.49,0.82V130.46z M158.76,123.44c0,0.46-0.22,0.82-0.49,0.82h-5.63c-0.27,0-0.49-0.36-0.49-0.82v-1.95
				c0-0.45,0.22-0.82,0.49-0.82h5.63c0.27,0,0.49,0.37,0.49,0.82V123.44z M169.37,144.5c0,0.46-0.22,0.82-0.49,0.82h-5.63
				c-0.27,0-0.49-0.36-0.49-0.82v-1.95c0-0.45,0.22-0.82,0.49-0.82h5.63c0.27,0,0.49,0.37,0.49,0.82V144.5z M169.37,137.48
				c0,0.46-0.22,0.82-0.49,0.82h-5.63c-0.27,0-0.49-0.36-0.49-0.82v-1.95c0-0.45,0.22-0.82,0.49-0.82h5.63
				c0.27,0,0.49,0.37,0.49,0.82V137.48z M169.37,130.46c0,0.46-0.22,0.82-0.49,0.82h-5.63c-0.27,0-0.49-0.36-0.49-0.82v-1.95
				c0-0.45,0.22-0.82,0.49-0.82h5.63c0.27,0,0.49,0.37,0.49,0.82V130.46z M169.37,123.44c0,0.46-0.22,0.82-0.49,0.82h-5.63
				c-0.27,0-0.49-0.36-0.49-0.82v-1.95c0-0.45,0.22-0.82,0.49-0.82h5.63c0.27,0,0.49,0.37,0.49,0.82V123.44z M179.98,144.5
				c0,0.46-0.22,0.82-0.49,0.82h-5.63c-0.27,0-0.49-0.36-0.49-0.82v-1.95c0-0.45,0.22-0.82,0.49-0.82h5.63
				c0.27,0,0.49,0.37,0.49,0.82V144.5z M179.98,137.48c0,0.46-0.22,0.82-0.49,0.82h-5.63c-0.27,0-0.49-0.36-0.49-0.82v-1.95
				c0-0.45,0.22-0.82,0.49-0.82h5.63c0.27,0,0.49,0.37,0.49,0.82V137.48z M179.98,130.46c0,0.46-0.22,0.82-0.49,0.82h-5.63
				c-0.27,0-0.49-0.36-0.49-0.82v-1.95c0-0.45,0.22-0.82,0.49-0.82h5.63c0.27,0,0.49,0.37,0.49,0.82V130.46z M179.98,123.44
				c0,0.46-0.22,0.82-0.49,0.82h-5.63c-0.27,0-0.49-0.36-0.49-0.82v-1.95c0-0.45,0.22-0.82,0.49-0.82h5.63
				c0.27,0,0.49,0.37,0.49,0.82V123.44z"/>
		</g>
	</g>
</g>
</svg>
