<?xml version="1.0" encoding="utf-8"?>
<!-- Generator: Adobe Illustrator 27.3.1, SVG Export Plug-In . SVG Version: 6.00 Build 0)  -->
<svg version="1.1" id="Layer_1" xmlns="http://www.w3.org/2000/svg" xmlns:xlink="http://www.w3.org/1999/xlink" x="0px" y="0px"
	 viewBox="0 0 284 299" style="enable-background:new 0 0 284 299;" xml:space="preserve">
<style type="text/css">
	.st0{fill:#5270D1;}
	.st1{fill:#FFFFFF;}
	.st2{opacity:0.24;}
	.st3{fill:none;stroke:#5270D1;stroke-width:2;stroke-miterlimit:10;}
	.st4{fill:none;stroke:#000000;stroke-width:4;stroke-miterlimit:10;}
	.st5{fill:#B4DDFC;stroke:#6BAED6;stroke-width:2;stroke-miterlimit:10;}
	.st6{fill:#FEC350;stroke:#D19E43;stroke-width:2;stroke-miterlimit:10;}
	.st7{fill:#5270D1;stroke:#3D5BA5;stroke-width:2;stroke-miterlimit:10;}
	.st8{fill:#3C8E61;stroke:#2C774C;stroke-width:2;stroke-miterlimit:10;}
	.st9{fill:#5FAFE0;stroke:#4799C3;stroke-miterlimit:10;}
	.st10{fill:#F2B64C;stroke:#D19E43;stroke-width:2;stroke-miterlimit:10;}
	.st11{fill:#DB6A3E;stroke:#C6512C;stroke-width:2;stroke-miterlimit:10;}
	.st12{fill:#D1D1D1;stroke:#B7B7B7;stroke-miterlimit:10;}
	.st13{fill:#282828;stroke:#000000;stroke-width:2;stroke-miterlimit:10;}
	.st14{fill:#636363;stroke:#424242;stroke-width:2;stroke-miterlimit:10;}
	.st15{fill:#383838;stroke:#212121;stroke-miterlimit:10;}
	.st16{fill:#FFDAAE;stroke:#F9C893;stroke-width:2;stroke-miterlimit:10;}
	.st17{fill:#1E2E4C;stroke:#09111E;stroke-miterlimit:10;}
	.st18{fill:#DBDBDB;stroke:#09111E;stroke-miterlimit:10;}
	.st19{fill:#FFFFFF;stroke:#09111E;stroke-miterlimit:10;}
	.st20{fill:#B24D4D;stroke:#9B3D3D;stroke-miterlimit:10;}
	.st21{fill:#3C8E61;}
	.st22{fill:#4CB47E;}
	.st23{fill:#D19E43;}
	.st24{fill:#BCBCBC;stroke:#828282;stroke-width:2;stroke-miterlimit:10;}
	.st25{fill:#383838;stroke:#212121;stroke-width:2;stroke-miterlimit:10;}
	.st26{fill:#F2F2F2;stroke:#D3D3D3;stroke-width:2;stroke-miterlimit:10;}
	.st27{fill:#C9597C;}
	.st28{fill:#4C66A5;}
	.st29{fill:#5296D1;}
	.st30{fill:#F9C66B;}
	.st31{fill:#D87252;}
	.st32{fill:#222F44;}
</style>
<g>
	<path class="st27" d="M194.18,232.57H89.82c-17.06,0-30.89-13.83-30.89-30.89V97.32c0-17.06,13.83-30.89,30.89-30.89h104.36
		c17.06,0,30.89,13.83,30.89,30.89v104.36C225.07,218.74,211.24,232.57,194.18,232.57z"/>
	<g class="st2">
		<path d="M123.94,150.82c1.52,2.84,4.51,4.77,7.94,4.77c3.44,0,6.43-1.93,7.95-4.77H123.94z M131.88,137.58c-4.96,0-9,4.04-9,9
			c0,0.77,0.1,1.53,0.28,2.24h17.45c0.18-0.71,0.28-1.47,0.28-2.24C140.89,141.62,136.85,137.58,131.88,137.58z"/>
		<path d="M159.29,170.69c-2.34-1.14-5.18-0.16-6.31,2.19c-1.14,2.34-0.16,5.18,2.19,6.31c2.34,1.14,5.17,0.16,6.31-2.19
			C162.62,174.66,161.64,171.83,159.29,170.69z"/>
	</g>
	<g>
		<path class="st1" d="M179.8,101.07h-75.6c-3.53,0-6.39,2.86-6.39,6.39v93.78c0,3.53,2.86,6.39,6.39,6.39h75.6
			c3.53,0,6.39-2.86,6.39-6.39v-93.78C186.19,103.93,183.33,101.07,179.8,101.07z M181.36,196.39c0,3.54-2.87,6.4-6.41,6.4h-65.9
			c-3.54,0-6.4-2.86-6.4-6.4V112.3c0-3.53,2.86-6.39,6.4-6.39h65.9c3.54,0,6.41,2.86,6.41,6.39V196.39z"/>
		<path class="st0" d="M158.02,126.37v5.95h5.96v-5.95H158.02z M158.02,126.37v5.95h5.96v-5.95H158.02z M158.02,126.37v5.95h5.96
			v-5.95H158.02z M158.02,126.37v5.95h5.96v-5.95H158.02z M158.02,126.37v5.95h5.96v-5.95H158.02z M158.02,126.37v5.95h5.96v-5.95
			H158.02z M135.46,168.51c-2.6,0-4.71,2.11-4.71,4.71c0,2.59,2.11,4.7,4.71,4.7c2.59,0,4.7-2.11,4.7-4.7
			C140.16,170.62,138.05,168.51,135.46,168.51z M158.02,126.37v5.95h5.96v-5.95H158.02z M158.02,146.69v5.96h5.96v-5.96H158.02z
			 M158.02,126.37v5.95h5.96v-5.95H158.02z M158.02,146.69v5.96h5.96v-5.96H158.02z M135.46,168.51c-2.6,0-4.71,2.11-4.71,4.71
			c0,2.59,2.11,4.7,4.71,4.7c2.59,0,4.7-2.11,4.7-4.7C140.16,170.62,138.05,168.51,135.46,168.51z M174.95,108.92h-65.9
			c-1.87,0-3.39,1.52-3.39,3.38v84.1c0,1.86,1.52,3.38,3.39,3.38h65.9c1.88,0,3.41-1.52,3.41-3.38v-84.1
			C178.36,110.44,176.83,108.92,174.95,108.92z M119.02,128.49h32.41v2h-32.41V128.49z M119.02,150.82v-2h32.41v2H119.02z
			 M139.43,180.89c-0.23-0.23-0.57-0.3-0.86-0.17h-0.01c-0.29,0.12-0.48,0.41-0.48,0.73v1.47c0,0.33-0.27,0.59-0.59,0.59h-4.06
			c-0.33,0-0.59-0.26-0.59-0.59v-1.47c0-0.32-0.19-0.61-0.48-0.73l-0.02-0.01c-0.29-0.12-0.62-0.05-0.84,0.17l-1.47,1.47l-3.7-3.71
			l1.46-1.46c0.22-0.22,0.29-0.56,0.17-0.85l-0.01-0.01c-0.12-0.3-0.4-0.49-0.72-0.49h-1.48c-0.32,0-0.59-0.26-0.59-0.58v-4.06
			c0-0.33,0.27-0.59,0.59-0.59h1.48c0.32,0,0.6-0.19,0.72-0.49l0.01-0.01c0.12-0.29,0.05-0.63-0.17-0.85l-1.46-1.46l3.7-3.71
			l1.46,1.46c0.22,0.23,0.56,0.3,0.86,0.17h0.01c0.29-0.12,0.48-0.4,0.48-0.72v-1.48c0-0.33,0.26-0.59,0.59-0.59h4.06
			c0.32,0,0.59,0.26,0.59,0.59v1.47c0,0.32,0.19,0.61,0.48,0.73h0.01c0.29,0.13,0.63,0.06,0.86-0.17l1.46-1.46l3.7,3.71l-1.46,1.46
			c-0.23,0.22-0.29,0.56-0.17,0.85v0.01c0.12,0.3,0.41,0.49,0.73,0.49h1.48c0.32,0,0.58,0.26,0.58,0.59v4.06
			c0,0.32-0.26,0.58-0.58,0.58h-1.48c-0.32,0-0.61,0.19-0.73,0.49v0.01c-0.12,0.29-0.06,0.63,0.17,0.85l1.46,1.46l-3.7,3.71
			L139.43,180.89z M153.19,188.69l0.7,0.34c0.15,0.07,0.22,0.25,0.14,0.41l-0.93,1.91c-0.07,0.16-0.26,0.22-0.41,0.15l-0.7-0.34
			c-0.15-0.07-0.33-0.05-0.45,0.06l-0.01,0.01c-0.12,0.11-0.17,0.28-0.11,0.44l0.35,1.02l-2.59,0.9l-0.36-1.02
			c-0.05-0.16-0.2-0.27-0.36-0.28h-0.01c-0.17-0.01-0.32,0.08-0.39,0.23l-0.34,0.7c-0.08,0.15-0.26,0.22-0.42,0.14l-1.91-0.93
			c-0.16-0.07-0.22-0.26-0.15-0.41l0.34-0.7c0.08-0.15,0.05-0.32-0.06-0.45l-0.01-0.01c-0.11-0.12-0.28-0.16-0.43-0.11l-1.03,0.36
			l-0.9-2.6l1.02-0.36c0.16-0.05,0.27-0.19,0.28-0.36v-0.01c0.01-0.16-0.08-0.32-0.23-0.39l-0.7-0.34
			c-0.15-0.07-0.22-0.26-0.14-0.41l0.93-1.92c0.07-0.15,0.26-0.22,0.41-0.14l0.7,0.34c0.15,0.07,0.33,0.04,0.45-0.07h0.01
			c0.12-0.11,0.17-0.29,0.11-0.44l-0.35-1.03l2.59-0.9l0.36,1.03c0.05,0.15,0.2,0.26,0.36,0.27h0.01c0.17,0.01,0.32-0.08,0.39-0.22
			l0.34-0.71c0.08-0.15,0.26-0.21,0.41-0.14l1.92,0.93c0.15,0.08,0.22,0.26,0.14,0.41l-0.33,0.7c-0.08,0.15-0.05,0.33,0.06,0.45
			v0.01c0.11,0.12,0.29,0.17,0.45,0.11l1.02-0.35l0.9,2.6l-1.02,0.35c-0.16,0.06-0.27,0.2-0.28,0.37S153.04,188.61,153.19,188.69z
			 M165.98,154.65h-9.96v-9.96h9.96V154.65z M165.98,134.32h-9.96v-9.95h9.96V134.32z M163.98,146.69h-5.96v5.96h5.96V146.69z
			 M163.98,126.37h-5.96v5.95h5.96V126.37z M149.78,185.82c-1.22-0.6-2.7-0.09-3.3,1.14c-0.59,1.22-0.08,2.71,1.15,3.3
			c1.22,0.59,2.7,0.08,3.3-1.14C151.52,187.89,151.01,186.41,149.78,185.82z M135.46,168.51c-2.6,0-4.71,2.11-4.71,4.71
			c0,2.59,2.11,4.7,4.71,4.7c2.59,0,4.7-2.11,4.7-4.7C140.16,170.62,138.05,168.51,135.46,168.51z M158.02,146.69v5.96h5.96v-5.96
			H158.02z M158.02,126.37v5.95h5.96v-5.95H158.02z M158.02,146.69v5.96h5.96v-5.96H158.02z M158.02,126.37v5.95h5.96v-5.95H158.02z
			 M158.02,126.37v5.95h5.96v-5.95H158.02z M158.02,126.37v5.95h5.96v-5.95H158.02z M158.02,126.37v5.95h5.96v-5.95H158.02z
			 M158.02,126.37v5.95h5.96v-5.95H158.02z"/>
		<path class="st1" d="M158.02,126.37v5.95h5.96v-5.95H158.02z M158.02,126.37v5.95h5.96v-5.95H158.02z M158.02,126.37v5.95h5.96
			v-5.95H158.02z M158.02,126.37v5.95h5.96v-5.95H158.02z M158.02,126.37v5.95h5.96v-5.95H158.02z M158.02,126.37v5.95h5.96v-5.95
			H158.02z M135.46,168.51c-2.6,0-4.71,2.11-4.71,4.71c0,2.59,2.11,4.7,4.71,4.7c2.59,0,4.7-2.11,4.7-4.7
			C140.16,170.62,138.05,168.51,135.46,168.51z M158.02,126.37v5.95h5.96v-5.95H158.02z M158.02,146.69v5.96h5.96v-5.96H158.02z
			 M158.02,126.37v5.95h5.96v-5.95H158.02z M158.02,146.69v5.96h5.96v-5.96H158.02z M135.46,168.51c-2.6,0-4.71,2.11-4.71,4.71
			c0,2.59,2.11,4.7,4.71,4.7c2.59,0,4.7-2.11,4.7-4.7C140.16,170.62,138.05,168.51,135.46,168.51z M174.95,108.92h-65.9
			c-1.87,0-3.39,1.52-3.39,3.38v84.1c0,1.86,1.52,3.38,3.39,3.38h65.9c1.88,0,3.41-1.52,3.41-3.38v-84.1
			C178.36,110.44,176.83,108.92,174.95,108.92z M119.02,128.49h32.41v2h-32.41V128.49z M119.02,150.82v-2h32.41v2H119.02z
			 M139.43,180.89c-0.23-0.23-0.57-0.3-0.86-0.17h-0.01c-0.29,0.12-0.48,0.41-0.48,0.73v1.47c0,0.33-0.27,0.59-0.59,0.59h-4.06
			c-0.33,0-0.59-0.26-0.59-0.59v-1.47c0-0.32-0.19-0.61-0.48-0.73l-0.02-0.01c-0.29-0.12-0.62-0.05-0.84,0.17l-1.47,1.47l-3.7-3.71
			l1.46-1.46c0.22-0.22,0.29-0.56,0.17-0.85l-0.01-0.01c-0.12-0.3-0.4-0.49-0.72-0.49h-1.48c-0.32,0-0.59-0.26-0.59-0.58v-4.06
			c0-0.33,0.27-0.59,0.59-0.59h1.48c0.32,0,0.6-0.19,0.72-0.49l0.01-0.01c0.12-0.29,0.05-0.63-0.17-0.85l-1.46-1.46l3.7-3.71
			l1.46,1.46c0.22,0.23,0.56,0.3,0.86,0.17h0.01c0.29-0.12,0.48-0.4,0.48-0.72v-1.48c0-0.33,0.26-0.59,0.59-0.59h4.06
			c0.32,0,0.59,0.26,0.59,0.59v1.47c0,0.32,0.19,0.61,0.48,0.73h0.01c0.29,0.13,0.63,0.06,0.86-0.17l1.46-1.46l3.7,3.71l-1.46,1.46
			c-0.23,0.22-0.29,0.56-0.17,0.85v0.01c0.12,0.3,0.41,0.49,0.73,0.49h1.48c0.32,0,0.58,0.26,0.58,0.59v4.06
			c0,0.32-0.26,0.58-0.58,0.58h-1.48c-0.32,0-0.61,0.19-0.73,0.49v0.01c-0.12,0.29-0.06,0.63,0.17,0.85l1.46,1.46l-3.7,3.71
			L139.43,180.89z M153.19,188.69l0.7,0.34c0.15,0.07,0.22,0.25,0.14,0.41l-0.93,1.91c-0.07,0.16-0.26,0.22-0.41,0.15l-0.7-0.34
			c-0.15-0.07-0.33-0.05-0.45,0.06l-0.01,0.01c-0.12,0.11-0.17,0.28-0.11,0.44l0.35,1.02l-2.59,0.9l-0.36-1.02
			c-0.05-0.16-0.2-0.27-0.36-0.28h-0.01c-0.17-0.01-0.32,0.08-0.39,0.23l-0.34,0.7c-0.08,0.15-0.26,0.22-0.42,0.14l-1.91-0.93
			c-0.16-0.07-0.22-0.26-0.15-0.41l0.34-0.7c0.08-0.15,0.05-0.32-0.06-0.45l-0.01-0.01c-0.11-0.12-0.28-0.16-0.43-0.11l-1.03,0.36
			l-0.9-2.6l1.02-0.36c0.16-0.05,0.27-0.19,0.28-0.36v-0.01c0.01-0.16-0.08-0.32-0.23-0.39l-0.7-0.34
			c-0.15-0.07-0.22-0.26-0.14-0.41l0.93-1.92c0.07-0.15,0.26-0.22,0.41-0.14l0.7,0.34c0.15,0.07,0.33,0.04,0.45-0.07h0.01
			c0.12-0.11,0.17-0.29,0.11-0.44l-0.35-1.03l2.59-0.9l0.36,1.03c0.05,0.15,0.2,0.26,0.36,0.27h0.01c0.17,0.01,0.32-0.08,0.39-0.22
			l0.34-0.71c0.08-0.15,0.26-0.21,0.41-0.14l1.92,0.93c0.15,0.08,0.22,0.26,0.14,0.41l-0.33,0.7c-0.08,0.15-0.05,0.33,0.06,0.45
			v0.01c0.11,0.12,0.29,0.17,0.45,0.11l1.02-0.35l0.9,2.6l-1.02,0.35c-0.16,0.06-0.27,0.2-0.28,0.37S153.04,188.61,153.19,188.69z
			 M165.98,154.65h-9.96v-9.96h9.96V154.65z M165.98,134.32h-9.96v-9.95h9.96V134.32z M163.98,146.69h-5.96v5.96h5.96V146.69z
			 M163.98,126.37h-5.96v5.95h5.96V126.37z M149.78,185.82c-1.22-0.6-2.7-0.09-3.3,1.14c-0.59,1.22-0.08,2.71,1.15,3.3
			c1.22,0.59,2.7,0.08,3.3-1.14C151.52,187.89,151.01,186.41,149.78,185.82z M135.46,168.51c-2.6,0-4.71,2.11-4.71,4.71
			c0,2.59,2.11,4.7,4.71,4.7c2.59,0,4.7-2.11,4.7-4.7C140.16,170.62,138.05,168.51,135.46,168.51z M158.02,146.69v5.96h5.96v-5.96
			H158.02z M158.02,126.37v5.95h5.96v-5.95H158.02z M158.02,146.69v5.96h5.96v-5.96H158.02z M158.02,126.37v5.95h5.96v-5.95H158.02z
			 M158.02,126.37v5.95h5.96v-5.95H158.02z M158.02,126.37v5.95h5.96v-5.95H158.02z M158.02,126.37v5.95h5.96v-5.95H158.02z
			 M158.02,126.37v5.95h5.96v-5.95H158.02z"/>
		<path class="st1" d="M158.77,104.49h-33.55c-1.1,0-2-0.89-2-2v-4.04c0-1.1,0.89-2,2-2h33.55c1.1,0,2,0.89,2,2v4.04
			C160.77,103.6,159.88,104.49,158.77,104.49z"/>
		<path class="st1" d="M149.86,96.82c0,0.64-0.06,1.25-0.2,1.83c-0.1,0.42-0.22,0.81-0.4,1.21c-0.46,1.11-1.17,2.08-2.04,2.86
			c-0.32,0.3-0.68,0.56-1.03,0.77h-8.38c-0.36-0.22-0.71-0.48-1.03-0.77c-0.87-0.77-1.59-1.75-2.04-2.86
			c-0.18-0.4-0.3-0.79-0.4-1.21c-0.14-0.58-0.2-1.19-0.2-1.83c0-0.48,0.04-0.93,0.12-1.37c0.18-1.03,0.58-2.01,1.11-2.86
			c1.39-2.18,3.85-3.63,6.63-3.63s5.24,1.45,6.63,3.63c0.54,0.85,0.93,1.83,1.11,2.86C149.82,95.88,149.86,96.34,149.86,96.82z"/>
	</g>
</g>
</svg>
